<?xml version="1.0" encoding="UTF-8"?>
<svg width="86px" height="104px" viewBox="0 0 86 104" version="1.1" xmlns="http://www.w3.org/2000/svg" xmlns:xlink="http://www.w3.org/1999/xlink">
    <!-- Generator: Sketch 55.1 (78136) - https://sketchapp.com -->
    <title>Fill 3</title>
    <desc>Created with Sketch.</desc>
    <g id="Page-1" stroke="none" stroke-width="1" fill="none" fill-rule="evenodd">
        <g id="--4-(Desktop)" transform="translate(-819.000000, -614.000000)" fill="#000000">
            <g id="--Hammer-Cursor" transform="translate(871.886719, 665.414062) rotate(-34.000000) translate(-871.886719, -665.414062) translate(845.386719, 608.414062)">
                <g id="Group-5" transform="translate(0.821966, 0.560973)">
                    <path d="M51.6560029,17.9945081 C50.2182219,13.2705754 47.7176672,9.60739697 43.9937839,6.78353838 C39.8337839,3.62943064 35.0691416,2.17831279 29.9317693,2.08852155 C22.6908642,1.96220505 15.4473022,2.02954848 8.20449927,2.01394916 C7.8272146,2.01318822 7.44955036,2.01394916 6.94511241,2.01394916 C6.91057226,1.44894916 6.87868905,0.930366667 6.84187153,0.333026599 L-0.000113868613,0.333026599 L-0.000113868613,14.9503566 L6.82630949,14.9503566 C6.86540438,14.4222623 6.90411971,13.9010165 6.94852847,13.2968279 C8.7271562,13.2968279 10.4587182,13.2903599 12.1902803,13.3078616 C12.3500759,13.309764 12.5204993,13.4490165 12.662835,13.5555485 C12.7596234,13.627838 12.8146599,13.755296 12.8905723,13.8568818 C15.1440321,16.8816293 15.143273,16.8816293 15.1444117,20.6677 C15.1504847,48.6296832 15.1485869,76.5916663 15.1785723,104.553269 C15.1808496,106.861969 15.3190102,109.177518 15.5421927,111.475185 C15.6818715,112.915649 15.8936672,112.977666 17.2881781,112.977666 C20.3246745,112.977666 23.3611708,112.941141 26.3965285,113.000304 C27.3298715,113.017235 27.7686453,112.632198 27.8802365,111.796683 C28.0354774,110.638148 28.2150102,109.472764 28.2408204,108.30738 C28.3345723,103.99702 28.4157985,99.6851377 28.4180759,95.3740165 C28.433638,69.5997438 28.4290832,43.8250906 28.4120029,18.0504374 C28.4116234,17.2784609 28.5782511,16.6605754 29.0815504,16.0636158 C29.8558569,15.1451579 30.5337547,14.1452791 31.2860467,13.2070367 C31.4617839,12.9882657 31.7661927,12.7531343 32.0231562,12.738296 C35.435419,12.5393094 38.8476818,12.4419088 42.2216088,13.1670872 C45.367419,13.8435653 48.181492,15.2208717 50.693054,17.2286192 C50.9386307,17.424562 51.1849664,17.6197438 51.6560029,17.9945081" id="Fill-3"></path>
                </g>
            </g>
        </g>
    </g>
</svg>