<?xml version="1.0" encoding="UTF-8"?>
<svg width="74px" height="74px" viewBox="0 0 74 74" version="1.1" xmlns="http://www.w3.org/2000/svg" xmlns:xlink="http://www.w3.org/1999/xlink">
    <!-- Generator: Sketch 55.1 (78136) - https://sketchapp.com -->
    <title>Fill 1</title>
    <desc>Created with Sketch.</desc>
    <g id="Page-1" stroke="none" stroke-width="1" fill="none" fill-rule="evenodd">
        <g id="--Homepage-(Desktop)" transform="translate(-683.000000, -172.000000)" fill="#000000">
            <g id="--Y&amp;R-Logo" transform="translate(683.000000, 172.000000)">
                <path d="M30.2376869,28.3285269 C30.9612433,29.8088638 31.6542197,31.3058162 32.445156,32.7487683 C32.5441527,32.9294618 33.3413087,32.99852 33.5061303,32.8250957 C34.5246034,31.7549539 35.6674701,30.7149276 36.3505986,29.4396883 C36.9953724,28.2371417 36.5237131,26.8866134 35.4876176,25.9223953 C34.5603666,25.0599472 33.4387504,24.8413496 32.2590839,25.3616223 C31.0581667,25.8912413 30.6274537,26.9307483 30.2376869,28.3285269 M31.0389894,35.655961 C29.4840686,36.3070807 28.5106883,37.380338 27.7270082,38.7277509 C26.140989,41.4516539 26.8344837,44.5966559 29.5737357,46.7369395 C31.928404,48.5765866 34.7930864,48.3019116 37.0389102,46.0655696 C37.5183441,45.5878741 37.6318533,45.186506 37.2348302,44.6153483 C35.165749,41.6416936 33.112217,38.6576543 31.0389894,35.655961 M38.4362657,46.3797064 C37.0326905,47.316405 35.7509175,48.3237195 34.336458,49.0838785 C31.752698,50.4717917 28.1940027,49.8118449 26.0673895,47.7016768 C24.016449,45.6662785 23.3597541,42.256467 24.9405902,39.691969 C25.835188,38.2412284 27.3657483,37.1752404 28.6511494,35.9799631 C29.1171073,35.5464025 29.7022758,35.2421312 30.1687521,34.9233214 C29.3938832,33.2555409 28.6604789,31.6786264 27.8757623,29.9905958 C27.0760147,31.2528543 26.1959296,32.5976711 25.3619737,33.9700073 C24.4212467,35.5173254 23.4825929,37.0687974 22.6247949,38.6623274 C22.2951517,39.2755431 22.0391081,40.0040288 22.0137111,40.6904565 C21.9447763,42.5472382 21.9914239,44.4102508 22.0416997,46.2691095 C22.0924937,48.1554876 22.434058,48.4846821 24.2844137,48.7541647 C24.7182366,48.8175113 25.1313272,49.0179357 25.5542656,49.1555328 C25.5128011,49.3097454 25.4713365,49.4639579 25.429872,49.6176513 L14.1468487,49.6176513 C14.0924265,49.5267853 14.0380043,49.4359193 13.9841004,49.3450533 C14.246882,49.1788983 14.5029256,48.8813771 14.7745184,48.8668385 C17.6055108,48.7136644 18.1580259,49.1181479 18.4327286,44.8012342 C18.6426429,41.507212 17.9201231,38.7064623 15.9609229,36.0080018 C13.7379046,32.9450388 11.9295318,29.5835162 9.83038875,26.4250141 C9.37065052,25.7323556 8.44650929,25.3491607 7.58819304,24.7141372 C6.1685504,27.8819855 5.57094253,30.8452554 5.28069065,33.838641 C4.57838479,41.0798822 6.03949198,47.9213129 9.98225267,54.0368542 C14.932602,61.7132136 21.9162694,66.6469777 30.9560603,68.3791432 C38.847283,69.8911534 46.284469,68.6060486 53.2479224,64.506694 C55.994949,62.8897985 58.3807157,60.8959389 60.55294,58.5863849 C60.9639574,58.1491896 61.6994349,57.8392067 62.3063723,57.8007834 C63.9722107,57.6948596 65.6489336,57.764437 67.3209917,57.764437 C67.4075489,57.8724377 67.4935879,57.9809577 67.5796268,58.0889584 C65.8495184,60.0366062 64.2370656,62.1067932 62.3654593,63.9069784 C57.5991089,68.4897401 51.9552649,71.6529153 45.5049354,73.0377131 C37.3327902,74.7922057 29.3306498,74.238702 21.60995,70.6222353 C13.6725979,66.9045179 7.72295284,61.1602291 3.88696336,53.3587342 C-0.536786153,44.3604043 -1.17896842,34.9845911 1.93190968,25.3886225 C2.2408206,24.4347891 2.67982656,24.1440179 3.665128,24.157518 C7.89710396,24.2146338 12.1301165,24.1715373 16.3620925,24.1990568 C16.7197243,24.2016529 17.0763194,24.4591931 17.4329146,24.5983479 C17.1048263,24.7696952 16.7933238,25.0308701 16.4450216,25.0973321 C14.5775618,25.4509306 14.2121554,26.0864733 15.1637669,27.7272536 C17.2401044,31.3078932 19.379157,34.8521863 21.5990655,38.5901538 C23.6225357,35.1689192 25.6081695,31.9621284 27.4346831,28.6670677 C28.4795898,26.7812088 27.8068275,25.6212394 25.6677748,25.0864281 C25.3972186,25.0189277 25.1686453,24.7811184 24.9208946,24.6222327 C25.1831579,24.4758086 25.4449029,24.2042491 25.7082028,24.2026914 C28.5143164,24.1871144 31.3276863,24.099883 34.1255071,24.2618841 C37.0741551,24.4327122 39.122504,26.6269962 38.6021239,28.9905506 C38.2014726,30.8125437 36.8414353,31.9963978 35.258526,32.9019424 C34.6640279,33.2415216 34.0726397,33.5878509 33.3641142,33.9985652 C35.422311,36.88395 37.4400798,39.7116999 39.4578486,42.5389305 C40.7334019,41.6453283 42.1991739,37.8845145 41.8410238,36.5827941 C41.5388509,35.4840944 40.6608389,35.0697455 39.6853853,34.7400317 C39.4205305,34.6502042 39.220464,34.3703369 38.9903358,34.177701 C39.2515624,34.0302385 39.5107159,33.7591982 39.7745341,33.7550443 C41.9327641,33.7192171 44.0920307,33.7218133 46.250779,33.7493327 C46.4845354,33.7524481 46.8846684,33.9658534 46.9064373,34.1231814 C46.9364991,34.3433367 46.7348777,34.7602818 46.544659,34.8220707 C43.8199196,35.7099613 42.9667864,38.1332277 41.9099586,40.3976083 C41.6176335,41.0232856 41.3880235,41.7055595 40.9744146,42.2414092 C40.1129885,43.3572437 40.3700688,44.2819999 41.2641482,45.1792367 C42.098104,46.0152039 42.9382795,46.8454595 43.7758635,47.6783113 C43.9567526,47.6180801 44.1371234,47.5578489 44.3174942,47.4976178 C44.3174942,44.8365421 44.4356682,42.1687164 44.2796578,39.516987 C44.1578557,37.4462807 45.0612646,36.8642191 46.7359143,36.0853677 C47.1163516,35.9088281 47.8647867,35.2623814 48.1000981,36.3761389 C48.1135741,36.4379278 48.336446,36.5028321 48.4515102,36.4877743 C50.4884563,36.2240033 52.6041852,36.2047916 54.5364333,35.5988452 C56.3121528,35.0417068 57.1497368,32.1926684 56.7086576,29.70294 C56.2344068,27.0262874 55.0132757,25.7323556 52.3175614,25.3813532 C50.9647804,25.2053328 49.5705348,25.3507184 48.0544871,25.3507184 L48.0544871,32.4969397 L44.2812127,32.4969397 C44.2812127,31.0851417 44.3263054,29.6733437 44.2713649,28.2656996 C44.1677035,25.6041047 43.8971473,25.3538338 41.3149423,25.0713703 C41.0065497,25.0371009 40.7199259,24.7987723 40.2855847,24.5879632 C40.6121181,24.3605386 40.6831261,24.2681149 40.752061,24.2696726 C45.4069754,24.3667694 50.0696644,24.3444424 54.7105845,24.653906 C56.0690669,24.7442527 57.4679773,25.6227971 58.6657845,26.4167063 C60.461718,27.6073105 61.2889358,29.4557845 60.8639242,31.5971067 C60.4570532,33.6486013 59.2172631,35.1974771 57.2233364,35.9882709 C56.2344068,36.380812 55.1915733,36.6373137 54.1953874,36.9483351 C55.5585346,38.5647114 56.9367127,40.1883569 58.3029697,41.8218679 C59.6298354,43.4081286 60.9354505,45.0125625 62.2716457,46.5905155 C62.6033622,46.9814989 62.9858727,47.3475591 63.4010365,47.6471572 C65.7489668,49.339861 66.8120143,49.065186 67.5614861,46.376591 C69.7508145,38.5252495 69.3926644,30.8670633 65.8723239,23.390609 C62.9309321,17.1437015 58.474011,12.2893803 52.4927492,9.04987766 C43.5871998,4.22619128 34.3152074,3.56935993 24.8182698,7.5004826 C20.2592422,9.38789917 16.4377653,12.2291491 13.1055701,15.8139425 C12.8707771,16.0668096 12.460278,16.284888 12.1254518,16.2931957 C10.3165606,16.3399268 8.50611458,16.3155228 6.3862393,16.3155228 C6.73713308,15.7988847 6.94341924,15.4634594 7.1802855,15.1508804 C11.6968119,9.18487857 17.3805656,4.72777159 24.4378325,2.21519695 C31.8724269,-0.432378603 39.4251953,-0.719515155 47.0826616,1.42284545 C52.4683888,2.92914407 57.2254096,5.53881552 61.3853409,9.2004556 C72.2884452,18.7985011 76.7883858,34.0785272 72.2417975,48.2354497 C71.8484026,49.4598041 71.2948508,49.900634 69.9793879,49.8393643 C67.0913817,49.7048826 64.1930095,49.809768 61.3024118,49.7131904 C60.6949561,49.6929403 59.9050564,49.3897074 59.5355035,48.9395313 C57.3487667,46.2737826 55.2703559,43.5192448 53.1338948,40.811438 C52.4150031,39.9001819 51.744314,38.8907905 50.8414234,38.2022858 C50.1411907,37.668513 49.114943,37.5636277 48.2079059,37.2598756 C48.2079059,40.8005341 48.179399,43.9875941 48.2270833,47.1736156 C48.2400409,48.0428137 48.8070687,48.5932021 49.710996,48.6902989 C50.3951611,48.7635109 51.0876191,48.7790879 51.7634914,48.8938387 C52.0345659,48.9395313 52.2719504,49.182533 52.5248842,49.3351878 C52.299939,49.4717465 52.0760304,49.7251328 51.8505669,49.7266905 C49.1304922,49.7443444 46.4005697,49.8596145 43.6918978,49.6737286 C41.3589984,49.5138044 39.6843487,48.0054289 38.4362657,46.3797064" id="Fill-1"></path>
            </g>
        </g>
    </g>
</svg>