<svg xmlns="http://www.w3.org/2000/svg" viewBox="0 0 500 500"><defs><style>.cls-1{fill:#231f20;}</style></defs><title>IconSet1</title><g id="Layer_2" data-name="Layer 2"><path class="cls-1" d="M490,124.59V376H165L132.19,342.1,125,334.69l-7.19,7.41L85,376H10V124.59H85.85l32,32.74,7.15,7.32,7.15-7.32,32-32.74H490m10-10H160L125,150.34,90.06,114.59H0V386H89.24L125,349.06,160.78,386H500V114.59Z"/><path class="cls-1" d="M124.05,187.09a.41.41,0,0,1,.42.41.42.42,0,0,1-.42.42.41.41,0,0,1-.41-.42.41.41,0,0,1,.41-.41m0-10a10.42,10.42,0,1,0,10.42,10.41,10.41,10.41,0,0,0-10.42-10.41Z"/><path class="cls-1" d="M124.05,228.75a.42.42,0,0,1,0,.84.42.42,0,0,1,0-.84m0-10a10.42,10.42,0,1,0,10.42,10.42,10.42,10.42,0,0,0-10.42-10.42Z"/><path class="cls-1" d="M124.05,270.42a.42.42,0,0,1,0,.84.42.42,0,0,1,0-.84m0-10a10.42,10.42,0,1,0,10.42,10.42,10.42,10.42,0,0,0-10.42-10.42Z"/><path class="cls-1" d="M124.05,312.09a.41.41,0,0,1,.42.41.42.42,0,0,1-.42.42.41.41,0,0,1-.41-.42.41.41,0,0,1,.41-.41m0-10a10.42,10.42,0,1,0,10.42,10.41,10.41,10.41,0,0,0-10.42-10.41Z"/><path class="cls-1" d="M265.48,271.45v12.3H219a32,32,0,0,1,4.53-13.22q3.77-6.24,14.89-16.57,9-8.34,11-11.31a14.61,14.61,0,0,0,2.73-8.11q0-4.44-2.38-6.81a10.09,10.09,0,0,0-13.17.11c-1.64,1.67-2.58,4.43-2.83,8.3l-13.2-1.32q1.17-10.94,7.4-15.7t15.56-4.76q10.23,0,16.07,5.52a18.07,18.07,0,0,1,5.85,13.71,23.78,23.78,0,0,1-1.68,8.89,36,36,0,0,1-5.3,8.84,85.21,85.21,0,0,1-8.67,8.82c-4.19,3.83-6.83,6.38-8,7.63a22.41,22.41,0,0,0-2.71,3.68Z"/><path class="cls-1" d="M274.62,266l13.2-1.37a11.38,11.38,0,0,0,3.35,7.1,9.09,9.09,0,0,0,6.41,2.62,8.88,8.88,0,0,0,7-3.38q2.88-3.36,2.88-10.15,0-6.37-2.85-9.55a9.51,9.51,0,0,0-7.43-3.18q-5.7,0-10.23,5l-10.75-1.55,6.79-36h35V228h-25L291,239.72a20.13,20.13,0,0,1,9-2.21,19.92,19.92,0,0,1,15,6.41q6.12,6.41,6.12,16.64a25,25,0,0,1-5,15.23q-6.73,9.13-18.71,9.14-9.57,0-15.61-5.14A21.18,21.18,0,0,1,274.62,266Z"/><path class="cls-1" d="M328.22,231.71q0-9.28,4.08-13.77t11.05-4.47q7.22,0,11.29,4.45t4.08,13.79q0,9.28-4.08,13.76T343.59,250q-7.21,0-11.29-4.45T328.22,231.71Zm10.33-.1c0,4.5.51,7.52,1.55,9.06a4,4,0,0,0,6.55,0q1.52-2.31,1.51-9.06t-1.51-9a4,4,0,0,0-6.55-.05C339.06,224.1,338.55,227.12,338.55,231.61Zm14.89,54.78h-9.8l36.81-72.92H390Zm21.4-18.15q0-9.28,4.08-13.76T390.07,250q7.13,0,11.2,4.48t4.08,13.76q0,9.35-4.08,13.82t-11.06,4.47q-7.21,0-11.29-4.47T374.84,268.24Zm10.33,0q0,6.74,1.55,9a3.74,3.74,0,0,0,3.26,1.74,3.67,3.67,0,0,0,3.25-1.69q1.56-2.31,1.56-9.05c0-4.5-.51-7.52-1.51-9.05a3.78,3.78,0,0,0-3.3-1.7,3.67,3.67,0,0,0-3.26,1.7Q385.17,261.45,385.17,268.2Z"/></g></svg>