<svg xmlns="http://www.w3.org/2000/svg" viewBox="0 0 500 500"><defs><style>.cls-1{fill:#231f20;}</style></defs><title>IconSet1</title><g id="Layer_2" data-name="Layer 2"><path class="cls-1" d="M456.76,69.75A33.28,33.28,0,0,1,490,103V397a33.28,33.28,0,0,1-33.24,33.24H43.24A33.28,33.28,0,0,1,10,397V103A33.28,33.28,0,0,1,43.24,69.75H456.76m0-10H43.24A43.23,43.23,0,0,0,0,103V397a43.23,43.23,0,0,0,43.24,43.24H456.76A43.23,43.23,0,0,0,500,397V103a43.23,43.23,0,0,0-43.24-43.24Z"/><polygon class="cls-1" points="250 299.77 55.12 129.47 61.7 121.94 250 286.49 438.3 121.94 444.88 129.47 250 299.77"/><rect class="cls-1" x="365.52" y="217.8" width="10" height="188.78" transform="translate(-108.37 385.76) rotate(-48.85)"/><rect class="cls-1" x="35.09" y="307.19" width="188.78" height="10" transform="translate(-173.44 162.31) rotate(-41.15)"/></g></svg>