<svg xmlns="http://www.w3.org/2000/svg" viewBox="0 0 500 500"><defs><style>.cls-1{fill:#010101;}</style></defs><title>IconSet1</title><g id="Layer_2" data-name="Layer 2"><g id="Artwork_5" data-name="Artwork 5"><path class="cls-1" d="M347,496.62H153.43C74.34,496.62,10,432.27,10,353.18V146.65C10,67.55,74.34,3.21,153.43,3.21H347c79.1,0,143.44,64.34,143.44,143.44V353.18C490.42,432.27,426.08,496.62,347,496.62ZM153.43,14.85C80.76,14.85,21.65,74,21.65,146.65V353.18C21.65,425.85,80.76,485,153.43,485H347c72.68,0,131.8-59.12,131.8-131.79V146.65c0-72.67-59.12-131.8-131.8-131.8ZM347,461.33H153.43A108.27,108.27,0,0,1,45.28,353.18V146.65A108.27,108.27,0,0,1,153.43,38.51H347A108.27,108.27,0,0,1,455.14,146.65V353.18A108.27,108.27,0,0,1,347,461.33ZM153.43,50.15a96.61,96.61,0,0,0-96.5,96.5V353.18a96.62,96.62,0,0,0,96.5,96.51H347a96.63,96.63,0,0,0,96.52-96.51V146.65A96.62,96.62,0,0,0,347,50.15Z"/><path class="cls-1" d="M250.21,383.06c-73.79,0-133.82-60-133.82-133.82a136.11,136.11,0,0,1,41-97c25.46-24.71,58.68-37.78,93.61-36.75,41.43,1.2,75.92,15.27,99.73,40.68,22.58,24.11,34.09,56.51,33.29,93.71a137.09,137.09,0,0,1-39.59,94A131.87,131.87,0,0,1,250.21,383.06Zm-3-256c-30.48,0-59.38,11.82-81.72,33.52A124.29,124.29,0,0,0,128,249.24,122.3,122.3,0,0,0,250.21,371.41a120.28,120.28,0,0,0,86-35.82,125.52,125.52,0,0,0,36.22-86c.73-34.09-9.7-63.65-30.15-85.49-21.64-23.09-53.31-35.89-91.57-37C249.52,127.05,248.37,127,247.23,127Zm3,212.89a90.79,90.79,0,0,1-90.69-90.69,92.63,92.63,0,0,1,27.92-66.1,85.6,85.6,0,0,1,59.81-24.63c.86,0,1.7,0,2.56.05,29.64.86,53.68,10.21,69.45,27.06,14.72,15.71,22.2,37.6,21.63,63.28C339.78,300,299.94,339.93,250.21,339.93Zm-3-169.77a73.94,73.94,0,0,0-51.69,21.34,80.86,80.86,0,0,0-24.4,57.74,79.14,79.14,0,0,0,79.05,79.05c43.34,0,78.06-35,79-79.64.5-22.58-5.9-41.62-18.49-55.07-13.61-14.53-34.82-22.61-61.35-23.38C248.64,170.17,248,170.16,247.25,170.16Z"/><path class="cls-1" d="M381.3,153.32A35.67,35.67,0,1,1,417,117.65,35.72,35.72,0,0,1,381.3,153.32Zm0-59.7a24,24,0,1,0,24,24A24.06,24.06,0,0,0,381.3,93.62Z"/></g></g></svg>