<svg xmlns="http://www.w3.org/2000/svg" viewBox="0 0 823.64 342.78"><defs><style>.a{fill:#231f20;}.b{fill:#fff;}</style></defs><title>break</title><path class="a" d="M69.52,290.62a4.82,4.82,0,0,0-1-3.55,32.46,32.46,0,0,0-6.4-5.47c-2.61-1.74-4.82-2.56-6.63-2.48q-1.25.06-3.09.33c-1.23.19-2.47.35-3.7.49-1.48.15-2.88.26-4.2.32a5.51,5.51,0,0,1-1.32-.31,6,6,0,0,1-1-.45,2.63,2.63,0,0,1-1.14-.45l-.78,1.18a1.16,1.16,0,0,0,0-1.14,17.7,17.7,0,0,1-.74-2.45,1.53,1.53,0,0,1,.66-1.89l2.53-.18c1.28-.1,2.72-.19,4.33-.27l4.58-.21,2.91-.14a6.56,6.56,0,0,1,3,.54,12.43,12.43,0,0,1,2,1.08,3.92,3.92,0,0,1,1,1.38c.4.77.86,1.14,1.35,1.12.17,0,.36-.2.59-.59a13.13,13.13,0,0,0,.8-1.59,14.21,14.21,0,0,0,.88-2.27l-2.9,1.5a6.87,6.87,0,0,1,1.29-1.55c.3-.59.62-1.29,1-2.09a17.54,17.54,0,0,0,.91-3.08,39.49,39.49,0,0,0,.21-6.15,5.24,5.24,0,0,0-3.07-4.51,15,15,0,0,0-5.06-2.06,11.25,11.25,0,0,0-3.84,0,20.42,20.42,0,0,0-2.35.23c-1,.13-2,.28-3,.45s-2.27.46-3.74.86q-.21.88-.75-.09a2.29,2.29,0,0,0-1.3-1.18,10.31,10.31,0,0,0-2.59.31,7,7,0,0,0-2.56.81,11.41,11.41,0,0,0-.13,2.61c0,1.65,0,3.45.13,5.39l.06,1.3a9,9,0,0,1,.57-3.75c0-.66.08-1.29.1-1.87a2.63,2.63,0,0,1,.48-1.51c.15-.5.45-.64.92-.41a1.09,1.09,0,0,1,.72.95,1.43,1.43,0,0,1-.2.88,8.33,8.33,0,0,0-.34.82c-.06.19-.14.38-.22.57-.31.35-.19,1.17.37,2.47a14,14,0,0,1,1,3.3,25.61,25.61,0,0,1,1,2.56c.19.65-.07,1.12-.8,1.4-.32.35-.59.24-.83-.33a3.76,3.76,0,0,0-.86-1.33,13.77,13.77,0,0,1-1.14-1.68,4.71,4.71,0,0,1-.78-2.07l.21,4.33.15,3.34A14.09,14.09,0,0,0,37,276a21.44,21.44,0,0,1,.24,2.53l.14,3A3.88,3.88,0,0,0,39,281a2.24,2.24,0,0,0,1.23-.76l-.48.73a24.66,24.66,0,0,1-1.63,2.31c-.31.43-.51.64-.59.65h-.25l0,11.53c.25-1.58.47-3.12.65-4.62a23,23,0,0,0,.59-3.19c.12-1,.21-1.72.28-2.06s.34-.68,1.07-1l.72-.53-.19,1.37a9.09,9.09,0,0,0-.38,2.37c0,.67.12,1.72.27,3.16a15,15,0,0,0,.66,3.38,9,9,0,0,1,.82,3.06c.19,1.4,0,2.15-.45,2.26h-1c-.33,0-.68-.29-1-.94A4.66,4.66,0,0,1,38.25,296l.11,2.23a15.26,15.26,0,0,0,.38,2.77c.2.86.52,1.36.94,1.51a7.42,7.42,0,0,0,2.4.94,3.12,3.12,0,0,0,2.22-.29c1.46-.65,2.36-.89,2.69-.75a5.53,5.53,0,0,0,2.26.52,31.15,31.15,0,0,0,4.73.21,43.9,43.9,0,0,0,5.25-.44,10,10,0,0,0,4.09-1.31,7.75,7.75,0,0,0,3-2.68,23,23,0,0,0,2.17-3.95A13.15,13.15,0,0,0,69.52,290.62ZM53.26,268a4.19,4.19,0,0,1,2.31.44l-10.18-.14,4.58-.21C51,268,52.14,268,53.26,268Zm-11.93-6.82c.06-.5.58-.9,1.56-1.19a17.81,17.81,0,0,1,3.07-.64,12.61,12.61,0,0,1,4.33-.21q-2.1.23-3.57.42a26.61,26.61,0,0,1-2.64.62c-.7.12-1.13.17-1.3.18-.33,0-.55,1-.66,2.95S42,266.69,42,267.6c0,.41,0,.37-.13-.12a18.6,18.6,0,0,1-.29-2.1c-.08-.9-.14-1.79-.18-2.66Zm2.55,35.49c-.1-2-.14-3.76-.13-5.33a38.13,38.13,0,0,0,.06-4c-.06-1.19.07-1.84.4-1.94l.15,3.22c0,.91.11,1.75.18,2.53s.13,1.34.15,1.67a9.37,9.37,0,0,1,0,1.06v1.3l.07,1.48L50,297.9Z" transform="translate(-10.17 -10.64)"/><path class="a" d="M112.26,302.37l1.35,1.23a3.55,3.55,0,0,0,.8-.52c-.25-.05-.48-.08-.76-.15A7.62,7.62,0,0,1,112.26,302.37Z" transform="translate(-10.17 -10.64)"/><path class="a" d="M140.76,262.19a6.58,6.58,0,0,0,.53-4.61,13.74,13.74,0,0,0-1.31-4.1,5.94,5.94,0,0,0-2.48-2.67,10.27,10.27,0,0,0-5.28-1.36l-1.72.26a1.26,1.26,0,0,0-.84.6,9.32,9.32,0,0,1-3.52.35h-3.66a13.53,13.53,0,0,0-2.29.29,14.24,14.24,0,0,1-2.15.29,5.25,5.25,0,0,0-1.67.26c-.28.14-.72.06-1.31-.24-1.34-.44-2.21-.4-2.6.12a5.62,5.62,0,0,0-.16,2c0,.09.07.49.19,1.23s.24,1.59.37,2.53.27,1.85.43,2.71a13.74,13.74,0,0,1,.28,1.91,5.77,5.77,0,0,0,.38,1.59c.14.25,0,.62-.25,1.13a10.82,10.82,0,0,0-.76,2.27c-.28,1.09-.25,1.79.09,2.11.36.48,1.18.4,2.48-.24a14.78,14.78,0,0,1,2.18-1,10.21,10.21,0,0,1,1.56.18c.79.13,1.73.25,2.81.36s2.23.27,3.43.46a15.84,15.84,0,0,0,3,.23,25.6,25.6,0,0,0,5.38-.56,7.88,7.88,0,0,0,4-2.12A12.77,12.77,0,0,0,140.76,262.19ZM115.23,255c0-.16.26-.26.8-.28a6.82,6.82,0,0,1,1.8.16l2.75.36-1.73.09a8.58,8.58,0,0,0-2.47.36c-.55.44-.52,1.14.1,2.11a5.88,5.88,0,0,0,.82,1.57l-.26-.24a2,2,0,0,1-.8-1.2,2.82,2.82,0,0,0-.75-1.51C115,255.78,114.92,255.31,115.23,255Zm2.33,9.94-1.66-1a3.2,3.2,0,0,1,.09-.75,2.68,2.68,0,0,0,.43-1.51l.26.37.8,1.07a3,3,0,0,0,1.52.8c.76.21,1.47.43,2.14.64a10.87,10.87,0,0,0,3,.48Z" transform="translate(-10.17 -10.64)"/><path class="a" d="M285.87,271.48c-.28-.57-1-2-2.07-4.31s-2.31-4.71-3.62-7.21-2.52-4.72-3.61-6.65-1.79-3-2.13-3.13c-.75-.21-1.2-.07-1.34.44a9.35,9.35,0,0,1-1,2,19.06,19.06,0,0,1-1.53,1.93c-.55.61-.7.95-.44,1,.42.22.86.47,1.33.74s.71.57.73.9c0,.08-.21.81-.64,2.2s-1,3-1.58,4.79-1.19,3.57-1.73,5.29a34.45,34.45,0,0,0-1,3.71,8.9,8.9,0,0,1-.87,2.46c-.46.89-.91,1.72-1.37,2.48a11.88,11.88,0,0,0-1,2.1c-.22.63-.16,1,.17,1a10.65,10.65,0,0,0,1.76.48,7.66,7.66,0,0,0,3.31-.84,27.75,27.75,0,0,0,3.41-1.46c.72-.41,1.26-.45,1.6-.14a14,14,0,0,0,5.11.38,9.46,9.46,0,0,1,2.31.26c1,.21,1.87.37,2.75.49a6.59,6.59,0,0,0,2.17,0,1,1,0,0,0,1-.91,9.21,9.21,0,0,0,0-3.91A12.93,12.93,0,0,0,285.87,271.48Zm-14.38.3-.77,2c.26-1.33.61-2.75,1-4.26a19.11,19.11,0,0,1,.88-3.58,5.69,5.69,0,0,1,1.2-2.23,14.31,14.31,0,0,0-.39,2.25,4.79,4.79,0,0,1-.75,2.52,9.71,9.71,0,0,1-.43,1.39,17.28,17.28,0,0,1-.74,1.91Zm1.06,4.05,1-.05a3.7,3.7,0,0,0,1.47-.32c.57-.19,1,0,1.4.68a11.16,11.16,0,0,1,.83,1.83Z" transform="translate(-10.17 -10.64)"/><path class="a" d="M509.92,244.78a6.61,6.61,0,0,0,.52-4.62,13.68,13.68,0,0,0-1.31-4.09,5.9,5.9,0,0,0-2.48-2.68,10.24,10.24,0,0,0-5.27-1.36l-1.73.27a1.26,1.26,0,0,0-.84.6,9.32,9.32,0,0,1-3.52.35h-3.66a14.51,14.51,0,0,0-2.28.29,15.58,15.58,0,0,1-2.16.29,4.93,4.93,0,0,0-1.66.26c-.29.14-.72.06-1.32-.25-1.34-.43-2.21-.39-2.6.13a6.11,6.11,0,0,0-.15,2q0,.12.18,1.23c.12.74.24,1.58.37,2.53s.27,1.84.44,2.7a15.56,15.56,0,0,1,.27,1.92,5.45,5.45,0,0,0,.39,1.59c.14.24,0,.62-.26,1.13a11.43,11.43,0,0,0-.76,2.27c-.28,1.09-.25,1.79.1,2.1.35.48,1.18.4,2.47-.24a13.52,13.52,0,0,1,2.19-1,11.81,11.81,0,0,1,1.56.17c.79.13,1.73.26,2.81.37s2.22.27,3.43.46a15.62,15.62,0,0,0,3.05.23,25.44,25.44,0,0,0,5.37-.57,8,8,0,0,0,4.06-2.11A13,13,0,0,0,509.92,244.78Zm-25.53-7.23c0-.17.25-.26.79-.29a7.87,7.87,0,0,1,1.81.16l2.75.37-1.74.08a8.94,8.94,0,0,0-2.46.37c-.56.44-.53,1.14.1,2.1a5.53,5.53,0,0,0,.82,1.58l-.26-.24a2,2,0,0,1-.8-1.2,2.93,2.93,0,0,0-.76-1.52c-.48-.6-.57-1.07-.25-1.41Zm2.33,9.94-1.66-1a3.2,3.2,0,0,1,.09-.75,2.78,2.78,0,0,0,.42-1.51l.27.36.79,1.08a3,3,0,0,0,1.53.8c.75.21,1.46.42,2.14.64a10.87,10.87,0,0,0,3,.48Z" transform="translate(-10.17 -10.64)"/><path class="a" d="M481.42,285c.47.44.91.83,1.35,1.23a5.13,5.13,0,0,0,.79-.52,3.26,3.26,0,0,1-.75-.16A6.94,6.94,0,0,1,481.42,285Z" transform="translate(-10.17 -10.64)"/><path class="a" d="M752.54,167.2l-4.21.2-69.45,3.28-4.83.23-67.34,3.17-6.07.29-68,3.21-4.33.2-73.91,3.49-144.1,6.79-4.7.23-67.47,3.18-5.94.28L163.52,195l-3.84.18-69,3.25-5.45.26-73,3.45,7.14,151.28,73-3.45,5.45-.26,69-3.25,3.84-.18L239.37,343l5.94-.28,67.47-3.18,4.7-.23,144.1-6.79,73.9-3.49,4.33-.2,68-3.21,6.07-.29,67.34-3.17L686,322l69.45-3.28,4.2-.19,74.16-3.5-7.14-151.28ZM62.38,307.58a37,37,0,0,0-5.55.76,35.83,35.83,0,0,1-7.6.6,61.69,61.69,0,0,1-8.15-.48c-2.17-.39-3.49-1.36-4-2.91a16.24,16.24,0,0,1-.77-3.07,12.27,12.27,0,0,0-.21-1.91,19,19,0,0,0-1.13-3q-.55-1-.9-5.91t-.63-10.77c-.19-3.87-.31-7.4-.38-10.59s-.11-5.06-.14-5.63l-.21-4.34a11.63,11.63,0,0,0-.4-3.21,7.13,7.13,0,0,0-.55-1.15,1.18,1.18,0,0,1-.05-1.05,6.93,6.93,0,0,1,2.66-1.55,31.19,31.19,0,0,0,3.76-1.85,28.88,28.88,0,0,1,5-1.36c1-.13,2.18-.23,3.59-.29,2-.09,3.79-.14,5.45-.13a28.12,28.12,0,0,0,4.1.24,22.74,22.74,0,0,1,2.86,0A16.42,16.42,0,0,0,62,251.15a23.49,23.49,0,0,0,2.57.68q1.36.06.9-.66a2.44,2.44,0,0,1-.38-1.6c.13-.58.46-.33,1,.76s1,2,1.31,2.73c.27.49.77,1.39,1.49,2.73a18.52,18.52,0,0,1,1.7,4.44,17.14,17.14,0,0,1-.32,5c-.36,1.88-.75,3-1.14,3.35a4.29,4.29,0,0,0-.4,2.06,3.86,3.86,0,0,1-.29,1.81,13.14,13.14,0,0,1-1.83,3.19c-.15.42,0,1,.58,1.84a4,4,0,0,0,.68,1.33l.34-.64a.91.91,0,0,1,1.24-.06,5.45,5.45,0,0,1,1.17,2.37,13.4,13.4,0,0,0,1.59,3.46,17.76,17.76,0,0,1,1.7,4.39,34.14,34.14,0,0,1,.79,6.29,8.57,8.57,0,0,1-.87,3.95,24.66,24.66,0,0,1-2.06,3.69,34.66,34.66,0,0,1-2.16,2.83,6.64,6.64,0,0,0-1.17,1.61.67.67,0,0,1-.79.22,3.43,3.43,0,0,0-1.79.27A33.6,33.6,0,0,1,62.38,307.58Zm15.78-15.26A23.68,23.68,0,0,1,75.72,301a36.66,36.66,0,0,1-3.93,6.15,20.12,20.12,0,0,1-5.24,4.71c.56-.52,1.23-1.09,2-1.71a25.46,25.46,0,0,0,4.24-4.91A25,25,0,0,0,76,297.69a50,50,0,0,0,1.27-8.43,9.51,9.51,0,0,0-.83-4.49,25.54,25.54,0,0,0-2.24-4.11,30.11,30.11,0,0,0-2.44-3.18,10.15,10.15,0,0,1-1.19-1.43c-.18-.32.33-.92,1.53-1.81.38-.68.66-2.65.84-5.93a97.12,97.12,0,0,0,0-10.24,9.69,9.69,0,0,0-2.29-5.23,30,30,0,0,0-4.75-4.61A53.63,53.63,0,0,0,59.09,244a7,7,0,0,1,3.53,1.14,22.11,22.11,0,0,1,4.31,3.2,42,42,0,0,1,4.12,4.52,15.61,15.61,0,0,1,2.71,4.84,13.23,13.23,0,0,1,.62,5.37c-.16,1.78-.39,3.53-.68,5.24a34,34,0,0,1-1,4.45c-.4,1.26-.7,2.19-.92,2.78a1.9,1.9,0,0,0,1,1.75,11.64,11.64,0,0,1,2.34,2.31,15.67,15.67,0,0,1,2.33,4.66A20.34,20.34,0,0,1,78.16,292.32Zm66.31-48.91a16.39,16.39,0,0,1,4.5,4.81,13.07,13.07,0,0,1,1.73,5.07c.21,1.73.48,3.62.83,5.67a15.4,15.4,0,0,1-.65,5.92,22.41,22.41,0,0,1-2.36,5.26,39.08,39.08,0,0,1-2.73,3.91,10.72,10.72,0,0,0-1.4,2,9,9,0,0,0,.64,2.89,42,42,0,0,0,2,4.93c.75,1.95,1.72,4.13,2.91,6.56-1.53-2.49-2.87-4.74-4-6.75a50.78,50.78,0,0,1-2.83-4.83,10.5,10.5,0,0,1-1.12-2.68c0-.33.51-1.06,1.57-2.18a51.35,51.35,0,0,1,3.86-3.66q2.37-2.22,2.84-8.14a35.48,35.48,0,0,0-.91-11.43,11.14,11.14,0,0,0-2.9-5,35.21,35.21,0,0,0-4.59-3.94c-1.88-1.15-3.92-2.29-6.12-3.44a51.5,51.5,0,0,1,8.73,5Zm.84,58.71a15.52,15.52,0,0,1-2.43-2.93,26.85,26.85,0,0,1-2.17-3.93c-.65-1.41-1.2-2.65-1.66-3.7l-1.93-4c-.82-1.7-1.67-3.43-2.54-5.21s-1.71-3.38-2.52-4.79A6.67,6.67,0,0,0,130,275a3.86,3.86,0,0,0-3.41,0,11.15,11.15,0,0,1-3.36,1.15,16.21,16.21,0,0,1-4.74.72,12.61,12.61,0,0,0-4,.56,2.9,2.9,0,0,0-.51,2.51,22.76,22.76,0,0,0,.52,3.08v2c0,.93-.08,1.92-.1,3s-.09,2.17-.17,3.17a19.84,19.84,0,0,0-.08,2.24,8.71,8.71,0,0,0,1.08,3,7.62,7.62,0,0,1,1,3.55,4.43,4.43,0,0,1-1.54,2.87c-.06,0-.12.08-.17.13a5.74,5.74,0,0,0,1.24.13c.49,0,.74-.08.74-.16a5.88,5.88,0,0,1,.93-1.29,3.36,3.36,0,0,0,.84-1.9,22.46,22.46,0,0,0-.19-2.72,28.23,28.23,0,0,0-.4-3.21c-.24-1.56-.46-3.22-.67-5s-.41-3.35-.6-4.75-.29-2.22-.3-2.47c0-.41-.07-1.05-.15-1.91s.21-1.19.88-1a18.55,18.55,0,0,1,2.47,1.06,5,5,0,0,0,2.57.56,2.58,2.58,0,0,1,2,1c.66.72.57,1.14-.25,1.26a5.74,5.74,0,0,1-2.88-.61l-1.14-.57a4.86,4.86,0,0,0-.28,2v2.3a12.28,12.28,0,0,0,.26,2.9,26.74,26.74,0,0,1-.17,4.1c-.18,1.58-.35,3.16-.53,4.74a30.69,30.69,0,0,1-.73,4.25,10.82,10.82,0,0,1-.92,2.65q-.7,1-2.88-.36l-.59-.54a2.91,2.91,0,0,1-1.9.29,4.57,4.57,0,0,1-1.51-.55,15.56,15.56,0,0,0-1-1.69,10.4,10.4,0,0,1-.8-3.69c-.17-1.81-.29-3.71-.39-5.69s-.14-3.84-.14-5.57v-3.23l-.26-5.51c-.14-3.17-.35-6.62-.61-10.33s-.46-7.19-.61-10.45l-.28-5.76a33.35,33.35,0,0,1,.17-4.47c.16-1.75.56-2.84,1.2-3.29a12.66,12.66,0,0,1,3.52-.41l5.26-.25q1,0,3.78-.24c1.85-.13,3.66-.23,5.44-.32s3.47-.18,5.07-.3a6,6,0,0,0,2.77-.56c.65-.28.89-.36.73-.23s.1.35.78.65a6.87,6.87,0,0,1,2.7.8,16.49,16.49,0,0,1,3.41,2.51,17.82,17.82,0,0,1,7,13.44A8.92,8.92,0,0,1,147.1,264a42.08,42.08,0,0,1-3.22,5.24,19.53,19.53,0,0,1-3.54,3.89,7,7,0,0,0-1.84,1.76c-.32.26-.41.46-.28.57a1.49,1.49,0,0,1,.22.92c0,.66,1,3.23,2.85,7.68a15.5,15.5,0,0,0,2.1,3.69q1.38,1.86,2.84,3.71c1,1.24,1.83,2.36,2.58,3.35a15.75,15.75,0,0,1,1.4,2.11,5.48,5.48,0,0,1,.27,3c-.22.79-1.09,1.6-2.62,2.41a1.79,1.79,0,0,1-2.53-.23l0,0Zm7.48-.54a4.86,4.86,0,0,1-2.23,2.52c-.82.33-1.15.28-1-.14a1,1,0,0,1,.66-.4,4.31,4.31,0,0,0,1.39-.69,2.9,2.9,0,0,0,.87-1.4c.18-.59.33-1.21.47-1.89l.36-2.74a7.42,7.42,0,0,1,.2,1.48,6.71,6.71,0,0,1-.72,3.26Zm72.29.25a6.09,6.09,0,0,1-3,1.44,16.64,16.64,0,0,1-2-.09c-.83-.09-1.8-.21-2.93-.36s-2.21-.33-3.25-.53a11.5,11.5,0,0,0-2.18-.27l-4.15.2-7.92.37c-2.85.13-5.45.24-7.8.31l-4.15.13a3.64,3.64,0,0,1-2.33-1.87,5.9,5.9,0,0,1-1-2.19c0-.08-.13-1-.37-2.65s-.52-3.53-.82-5.55-.56-4-.77-5.85-.34-3.17-.37-3.83a25.58,25.58,0,0,1,.27-4.79c.25-1.71.44-2.89.58-3.57a6.19,6.19,0,0,0,0-2.35c-.14-1.15-.3-2.39-.49-3.7s-.39-2.69-.62-4.13a29.65,29.65,0,0,1-.42-3.52c0-.9-.06-2.16-.05-3.78s.07-3.31.19-5.09a33.88,33.88,0,0,1,.64-4.81,4.89,4.89,0,0,1,1.3-2.79,11.91,11.91,0,0,1,3.44-.66q2.6-.24,5.7-.27h5.76c1.78,0,3,0,3.54,0s1.42-.1,2.53-.24,2.2-.31,3.26-.53l3.07-.63a8.62,8.62,0,0,0,2.2-.73,7.87,7.87,0,0,1,2.68-1.06,3.9,3.9,0,0,1,2.61.07,5,5,0,0,1,2.42,2.49,5.89,5.89,0,0,1,1,3.43,7.47,7.47,0,0,1-.93,2.58,3.41,3.41,0,0,1-2.84,1.57,12.51,12.51,0,0,1-4.27.2,25.68,25.68,0,0,0-3.92-.19c-.58,0-2.06.14-4.45.33l-7.66.61q-4.82.6-10.5,1a14,14,0,0,0-.09,3.42l.27,5.76.38,8a9.74,9.74,0,0,0,2.34-.35,21.94,21.94,0,0,1,2.29-.24,3.91,3.91,0,0,0,1.77-.45,15.59,15.59,0,0,1,1.93.09c.87.08,1.79.17,2.74.24a22.76,22.76,0,0,0,2.86.06l2-.1a22.33,22.33,0,0,0,3.29-1.21,6.72,6.72,0,0,1,3.44-.72,17.4,17.4,0,0,0,2.78,1q1.63.48,1.38,3a14.42,14.42,0,0,1-.44,3.87c-.28,1-1.28,1.63-3,1.88a6.45,6.45,0,0,1-3.08.33c-.51-.18-1.1-.42-1.78-.72a8.67,8.67,0,0,0-2.54-.13l-3.9.18c-1.41.07-2.73.17-4,.31s-2,.22-2.22.23a3.3,3.3,0,0,1-2.35.24,2,2,0,0,0-2,.34c-.33.1-.54.73-.65,1.89s-.2,2.43-.26,3.8a32.85,32.85,0,0,0,.07,4.09,5.18,5.18,0,0,0,.42,2.27,7.6,7.6,0,0,1,.67,2.39c.08.78.12,1.3.13,1.55a8.08,8.08,0,0,1-.4,2.06c-.28,1-.12,1.72.47,2a3.74,3.74,0,0,0,2.79-.07,13,13,0,0,1,3-.7c.49,0,1.57,0,3.23.09s3.48.21,5.47.36,3.88.28,5.67.36a9.32,9.32,0,0,0,3.64-.3,24.77,24.77,0,0,0,5.62-1.88c2.35-1,4-1.38,5-1.1,1.16.19,1.93,1.08,2.29,2.68a23.06,23.06,0,0,1,.62,3.88,4.52,4.52,0,0,1-1.85,2.95Zm-12.64-37.68L208.87,262a5.07,5.07,0,0,1,1.51.55,6.3,6.3,0,0,1,2.06,1.6ZM193,256.69a16.48,16.48,0,0,0,.93,3.86,1.84,1.84,0,0,0,1.74,1.41l2.87.36a13.81,13.81,0,0,0,2.49.13H202a11.7,11.7,0,0,1-2.29.23,28.69,28.69,0,0,0-4.13.57q-2.46.24-5.81.4a4.28,4.28,0,0,1,.44-1.14,12,12,0,0,0,0-2.24L190,256a26.94,26.94,0,0,1,.09-3.36l11.77-.55c-1.48.32-2.79.62-3.93.93a13.1,13.1,0,0,1-2.76.75,3,3,0,0,0-1.65.57C193,254.64,192.84,255.42,193,256.69Zm9.69,21.19c.08,0-.27,0-1.05.11s-1.73.23-2.83.45-2.14.39-3.08.52l-1.42.18.55-.21a18.21,18.21,0,0,1,2.51-.67c1.06-.22,2.11-.41,3.14-.58a3,3,0,0,1,2.16.2Zm-8.76,12.06-1.45.34q-.27-3-.64-5.68c-.24-1.56-.43-3-.57-4.25s-.23-2.12-.25-2.54c.37.81.7,1.63,1,2.44a13.46,13.46,0,0,1,.82,3c.18,1.11.42,2.4.74,3.87.15,1.4.25,2.31.32,2.72,0,0,0,.06,0,.1Zm70.25,7.87a15.92,15.92,0,0,1-2.24,2.47,1,1,0,0,1,.33-.76,1.5,1.5,0,0,1,.46-.83c.24-.22.51-.46.83-.72a12.1,12.1,0,0,0,1.35-2.92c.14-.59.36-1.3.65-2.14a7.11,7.11,0,0,1-1.4,4.9Zm2.2-5.93c2.46-.45,4.88-.79,7.27-1,2-.25,3.87-.45,5.68-.57a16.64,16.64,0,0,1,4.23.11Zm35.46,2.17a4.4,4.4,0,0,1-.92,2.77c-.52.53-1.61.66-3.27.41a3.4,3.4,0,0,1-3.2-2.08c-.56-1.3-1-2.36-1.27-3.17a5.12,5.12,0,0,0-.64-1.83c-.41-.81-.82-1.55-1.23-2.24a21,21,0,0,0-1.33-2c-.48-.63-.78-1.05-.86-1.14-.43-.3-1.11-.11-2,.6a24.29,24.29,0,0,1-2.83,1.87,4.51,4.51,0,0,1-3.26.65,32.2,32.2,0,0,0-5.89-.1,17.4,17.4,0,0,0-5.67,1,8.4,8.4,0,0,1-3.06.83,2.07,2.07,0,0,1-2.1-1,1.39,1.39,0,0,0-1.71-.79c-.65.2-.86.6-.62,1.21a3.65,3.65,0,0,1,0,2.17,23.47,23.47,0,0,1-.65,3.32,13.7,13.7,0,0,1-1.5,3.85c-.6,1.19-1.22,1.59-1.86,1.21a7.18,7.18,0,0,0-1.71-.79c-.75-.13-1.08-.82-1-2.06a16.06,16.06,0,0,1,1-4.21,36.66,36.66,0,0,1,2-4.37,24.64,24.64,0,0,0,1.52-3.3,16.35,16.35,0,0,0,1.61-3.92,18.53,18.53,0,0,0,.66-3.13,13.83,13.83,0,0,0,.36-2.87,30.07,30.07,0,0,1,1.33-6,67.54,67.54,0,0,1,3.41-9.22q2-4.44,2-5.43a10.4,10.4,0,0,1,.09-1.93,9.69,9.69,0,0,1,.58-2.19,9.92,9.92,0,0,1,1.13-2.48,3.28,3.28,0,0,0,.65-1.83,5,5,0,0,0-.58-2,5.39,5.39,0,0,1-.5-2.59,12,12,0,0,1,.72-1.83,12.38,12.38,0,0,1,1.21-2,7.93,7.93,0,0,1,1.54-1.63,1.2,1.2,0,0,1,1.6-.07,5.11,5.11,0,0,1,1.29,2.17c.33,1,.65,2,1,3.06a22.92,22.92,0,0,1,.64,3.07,5.24,5.24,0,0,0,.59,2.08c.19.49.67,1.56,1.46,3.22s1.65,3.48,2.61,5.46,1.93,4,2.89,6.07a54.31,54.31,0,0,1,2.17,5.17c.55,1.21,1.31,3,2.3,5.29s2,4.62,3.11,6.92,2.09,4.43,3,6.38,1.45,3.15,1.73,3.64a7.74,7.74,0,0,0,2.37,2.92,2.63,2.63,0,0,1,1.07,2.86Zm.16-9.81c-.34-.06-.78-.79-1.35-2.17s-1.3-3.1-2.22-5.17l-3.19-7.1q-1.8-4-3.87-8.38-4.31-9.72-9.73-22.12,6.33,13.09,11,23.42l3.82,8.57c1.24,2.79,2.31,5.16,3.19,7.11s1.54,3.48,2,4.62S302.24,284.56,302,284.24Zm39.69-10.8a7.2,7.2,0,0,0-.33.88c-.15.42-.26.76-.33,1a5.45,5.45,0,0,0-.28,3.24q.28,2.22.78,7.28a25.43,25.43,0,0,1,.13,4.09,11.18,11.18,0,0,1-.55,2.75,3.42,3.42,0,0,1-.92,1.54,3.43,3.43,0,0,1,.33-.76l.56-1.27a17.69,17.69,0,0,0-.14-3c-.15-1.52-.24-2.49-.26-2.91,0-.08-.07-.61-.2-1.6s-.3-2-.52-3a30.13,30.13,0,0,1-.45-3c-.08-1-.13-1.55-.14-1.79a7.94,7.94,0,0,1,1.36-2.67,10.21,10.21,0,0,0,1.39-2.06,9.72,9.72,0,0,0-.45,1.28Zm31,18.14a3.77,3.77,0,0,1-1.84,3.06c-1.92,1.33-3.37,1.4-4.33.21a8.59,8.59,0,0,1-1.87-2.71,32.33,32.33,0,0,0-1.63-3.08,9.33,9.33,0,0,1-1.4-2c-.59-1-1.3-2.17-2.14-3.37a33.35,33.35,0,0,0-2.64-3.29,16.56,16.56,0,0,1-2-2.57,27.66,27.66,0,0,0-2-2.82c-1-1.24-1.91-2.47-2.84-3.71s-1.83-2.36-2.7-3.35-1.45-1.65-1.71-2a8.91,8.91,0,0,0-1-.57A2.83,2.83,0,0,1,344,265l-.51-.34a31.4,31.4,0,0,0-2.1,3,28,28,0,0,1-1.81,2.26,6.66,6.66,0,0,0-1.11,1.48,6.76,6.76,0,0,0-1.42,1.55,17.1,17.1,0,0,0-1.14,2.16c-.46.69-.61,1.11-.43,1.26a.73.73,0,0,1,.27.49l.07,1.48a20.12,20.12,0,0,0,.25,2.66c.13.95.25,1.85.37,2.71s.2,1.5.22,1.91A11.29,11.29,0,0,1,337,288a14.25,14.25,0,0,0,.22,2.16,3.78,3.78,0,0,0,.44,1.34,4.46,4.46,0,0,1,.45,1.59,2.7,2.7,0,0,1-1,1.91,9.71,9.71,0,0,1-2.4,1.73c-1.54.57-2.64.21-3.28-1.09q0-.36-.21-3.21t-.35-6.19l-.3-6.31-.17-3.59a8.41,8.41,0,0,1,.31-2.69,6.23,6.23,0,0,0-.09-3.15c-.13-1.07-.28-2.39-.44-4s-.24-2.59-.26-3.09c0-.16-.12-.73-.33-1.72a25.11,25.11,0,0,1-.48-3.45c-.1-1.32-.22-2.57-.36-3.77s-.22-2-.24-2.53a15.5,15.5,0,0,0-.21-1.79c-.12-.79-.27-1.62-.43-2.52s-.29-1.72-.37-2.46-.11-1.2-.12-1.36a5.1,5.1,0,0,0-.46-1.72,1.75,1.75,0,0,1,.29-1.87,4.85,4.85,0,0,1,1.51-2.12,11.89,11.89,0,0,1,2.27-1.78,1.21,1.21,0,0,0,.67-.41.82.82,0,0,1,.67-.28h.74a4.69,4.69,0,0,1,1.18-1.17c.8-.7,1.32-1.06,1.57-1.07.17.24.55.74,1.12,1.5a16.21,16.21,0,0,1,1.13,1.62c0,.25.1,1.07.24,2.47s.26,2.88.34,4.45.1,3.08.09,4.52,0,2.34,0,2.67a2.88,2.88,0,0,0-.32,1.07c-.06.46-.13.86-.19,1.19-.23.59-.37,1-.44,1.26a41.6,41.6,0,0,1,.28-4.6,40.68,40.68,0,0,0-.37-7.8c-.35-2.22-.54-3.62-.57-4.19a1.72,1.72,0,0,0-.68-1.34,2.7,2.7,0,0,0-2.14-.52,1.6,1.6,0,0,0-1.09.55.74.74,0,0,0-.1.5,4.24,4.24,0,0,0,.68,1.21,8,8,0,0,0,.43,1.28,3.37,3.37,0,0,1,.3,1.17,10.44,10.44,0,0,1-.65,3.26,12,12,0,0,0-.67,2.76,6.82,6.82,0,0,0,.37,1.34,7.27,7.27,0,0,1,.39,1.72l.08,1.67c0,.87.06,1.8.07,2.79s0,2,.08,2.91l.08,1.8a16.22,16.22,0,0,0,.16,2,2.18,2.18,0,0,1-.13,1.31c-.32.1-.77-.11-1.33-.62a9.87,9.87,0,0,1-1.11-1.13c-.41-.06-.59.61-.52,2a34.76,34.76,0,0,0,.44,4.2c.53,2.45.88,3.68,1,3.67a7.25,7.25,0,0,0,1.73-1.44c1-1,2-2,3-3.06a31.87,31.87,0,0,1,3-2.81,22.19,22.19,0,0,0,1.78-1.57,10.46,10.46,0,0,0,1.44-2.43,19.89,19.89,0,0,1,2.6-4,14.59,14.59,0,0,1,2.05-2.64c1.06-1.17,2.14-2.33,3.25-3.5s2.16-2.34,3.18-3.5a22.93,22.93,0,0,0,2-2.51,21.31,21.31,0,0,0,2.74-3.73,15.87,15.87,0,0,1,2.63-3.47,5.38,5.38,0,0,0,1.56-1.2l1.09-.42a.81.81,0,0,1,.59-.65,3,3,0,0,0,1-.79,12,12,0,0,1,2.06.28c1,.2,1.61.46,1.71.79.34.23.58.9.72,2a5,5,0,0,1-.08,1.72,4.52,4.52,0,0,0-.4-1.39l-.32-1.35h-.49a5.7,5.7,0,0,1-1.37-.07,2.25,2.25,0,0,1-1-.75c-.18-.28-.42-.25-.74.09l-.6.41a13.41,13.41,0,0,0,1.2,1.8,8.85,8.85,0,0,1,.75,1.39c.23.53.31.88.24,1a22.48,22.48,0,0,1-1.47,1.87c-.75.87-1.62,1.92-2.64,3s-2.11,2.23-3.26,3.32-2.16,2-3,2.81a75.24,75.24,0,0,0-5.07,5.64c-1.88,2.28-3,3.67-3.4,4.19s-.71.78-.7,1v.37q3.54,3.93,6.43,7.51a75.52,75.52,0,0,1,5,5.72c1.49,1.92,2.46,3.15,2.9,3.71s.89,1.3,1.6,2.22,1.45,1.85,2.24,2.81L368.9,285a15.47,15.47,0,0,0,1.18,1.37,10.74,10.74,0,0,0,1.89.78,1,1,0,0,1,.8,1.08,13.74,13.74,0,0,1-.1,3.33Zm2.44-1a8.83,8.83,0,0,1-.65,2.14,6.63,6.63,0,0,1,.21-.88,3.72,3.72,0,0,1,.08-1,4.21,4.21,0,0,0,.07-1,9.81,9.81,0,0,0-.34-2.09,8.74,8.74,0,0,1-.33-1.6,8.76,8.76,0,0,0-1.06-1.44c-.7-.87-1.47-1.91-2.31-3.11s-1.71-2.34-2.59-3.42-1.7-2-2.49-2.8c-.52-.63-1.41-1.85-2.65-3.65s-2.52-3.55-3.84-5.22c-1-1.43-2-2.9-3-4.35.48.58,1,1.22,1.7,2,2.18,2.51,4.48,5.33,6.91,8.49s4.67,6.08,6.74,8.8a30.86,30.86,0,0,1,3.4,4.93,9.22,9.22,0,0,1,.13,4.21ZM513.62,226a16.72,16.72,0,0,1,4.51,4.82,13.35,13.35,0,0,1,1.73,5.06c.2,1.73.48,3.62.82,5.67a15.07,15.07,0,0,1-.65,5.93,23,23,0,0,1-2.35,5.26,44.2,44.2,0,0,1-2.74,3.91,10.22,10.22,0,0,0-1.39,2,9,9,0,0,0,.63,2.89,45.81,45.81,0,0,0,2,4.93c.75,1.95,1.73,4.13,2.92,6.56-1.53-2.49-2.88-4.75-4.05-6.76a50.78,50.78,0,0,1-2.83-4.83,10.87,10.87,0,0,1-1.12-2.68c0-.32.51-1,1.57-2.18a43.7,43.7,0,0,1,3.86-3.65c1.59-1.49,2.54-4.21,2.85-8.14a35.19,35.19,0,0,0-.92-11.43,11.38,11.38,0,0,0-2.9-5,35.21,35.21,0,0,0-4.59-3.94c-1.87-1.15-3.91-2.3-6.12-3.43A52.14,52.14,0,0,1,513.62,226Zm.85,58.71a15.51,15.51,0,0,1-2.44-2.92,29.47,29.47,0,0,1-2.17-3.93c-.64-1.42-1.2-2.65-1.66-3.71s-1.1-2.3-1.93-4l-2.54-5.22q-1.31-2.67-2.52-4.78a6.73,6.73,0,0,0-2.1-2.57,3.86,3.86,0,0,0-3.41,0,11.15,11.15,0,0,1-3.36,1.15,16.55,16.55,0,0,1-4.74.72,12,12,0,0,0-4,.56,2.89,2.89,0,0,0-.5,2.51,22.89,22.89,0,0,0,.52,3.07v2c0,.92-.07,1.93-.1,3s-.08,2.17-.16,3.17a18.47,18.47,0,0,0-.08,2.23,9,9,0,0,0,1.07,3.05,7.69,7.69,0,0,1,1,3.56,4.52,4.52,0,0,1-1.54,2.86l-.18.14a6.43,6.43,0,0,0,1.24.12c.5,0,.75-.07.74-.16a6.86,6.86,0,0,1,.93-1.28,3.21,3.21,0,0,0,.84-1.9,20.6,20.6,0,0,0-.19-2.72,28.23,28.23,0,0,0-.4-3.21c-.24-1.56-.46-3.22-.67-5s-.4-3.35-.59-4.75-.29-2.22-.3-2.47c0-.41-.08-1-.16-1.91s.22-1.19.89-1a22.39,22.39,0,0,1,2.47,1.06A5,5,0,0,0,491,263a2.58,2.58,0,0,1,2,1c.65.71.57,1.13-.25,1.25a5.74,5.74,0,0,1-2.88-.61l-1.15-.56a5,5,0,0,0-.28,2,21.87,21.87,0,0,1,0,2.29,11.78,11.78,0,0,0,.26,2.9,28.21,28.21,0,0,1-.18,4.11c-.17,1.58-.35,3.16-.52,4.74a32.26,32.26,0,0,1-.73,4.25,10.44,10.44,0,0,1-.93,2.65c-.46.68-1.42.56-2.87-.36l-.59-.54a3,3,0,0,1-1.9.28,4.61,4.61,0,0,1-1.52-.54,12.62,12.62,0,0,0-1-1.7,10.6,10.6,0,0,1-.79-3.68c-.17-1.81-.3-3.7-.39-5.69s-.14-3.84-.14-5.58v-3.22l-.26-5.51c-.15-3.18-.36-6.62-.61-10.33s-.46-7.2-.62-10.46l-.27-5.75a31.9,31.9,0,0,1,.16-4.48c.17-1.74.57-2.83,1.21-3.28a12.66,12.66,0,0,1,3.52-.41l5.26-.25c.66,0,1.92-.11,3.77-.24s3.67-.24,5.45-.32,3.46-.18,5.07-.3,2.53-.31,2.76-.57c.65-.28.9-.35.74-.22s.1.35.77.65a7,7,0,0,1,2.71.8,16.07,16.07,0,0,1,3.4,2.51,17.35,17.35,0,0,1,4.39,4.88,17.64,17.64,0,0,1,2.57,8.56,8.82,8.82,0,0,1-1,5.45A42.66,42.66,0,0,1,512.8,252a19.48,19.48,0,0,1-3.54,3.88,7.55,7.55,0,0,0-1.84,1.77c-.32.26-.41.45-.28.57a1.43,1.43,0,0,1,.23.92q0,1,2.84,7.68a15.5,15.5,0,0,0,2.1,3.69c.93,1.24,1.87,2.47,2.84,3.71s1.83,2.35,2.58,3.35a13.55,13.55,0,0,1,1.4,2.11,5.48,5.48,0,0,1,.27,3c-.21.8-1.08,1.6-2.62,2.42a1.79,1.79,0,0,1-2.31-.4Zm7.48-.54a4.9,4.9,0,0,1-2.24,2.53c-.81.33-1.15.28-1-.14a1,1,0,0,1,.67-.4,4.52,4.52,0,0,0,1.39-.69,3,3,0,0,0,.86-1.41,17.81,17.81,0,0,0,.47-1.88l.37-2.74a7.22,7.22,0,0,1,.19,1.47,6.87,6.87,0,0,1-.66,3.25Zm39-27.4c.09-1.57.09-4.21,0-7.94s-.27-7.6-.55-11.63-.53-7.63-.76-10.76-.35-4.78-.35-4.95q.75,5.55,1.49,10.6.45,4.32.76,8.22c.2,2.59.34,4.51.39,5.75,0,1.07.09,2.68.11,4.83s.07,4.21.17,6.2q0,3.72.24,7.8a3.14,3.14,0,0,1-.94-1.57c-.61-1.22-.79-3.4-.51-6.56Zm3.11,22.56a24.76,24.76,0,0,1-5.66-3,41.14,41.14,0,0,1-3.86-3,10,10,0,0,1-1.61-3.83,55.77,55.77,0,0,1-1.39-7.13c-.38-2.75-.66-5.62-.84-8.59s-.34-5.77-.46-8.41l-.34-7.18-.2-4.21a21.41,21.41,0,0,0-1.23-6.33q-1.07-3-.51-4.26a6.75,6.75,0,0,1,2.3-2.53,10,10,0,0,1,2.6-1.42c1.47-.32,2.76.7,3.87,3a4.06,4.06,0,0,1,.1,3.47c-.47,1.43-.78,2.35-.92,2.77a15.3,15.3,0,0,0-.07,4l.37,7.86c.14,2.93.32,5.74.53,8.41s.33,4.47.37,5.38a20.63,20.63,0,0,0,.72,4.68c.4,1.39.7,2.61.92,3.68.46,1,.58,1.75.35,2.09a3,3,0,0,0-.46.89,11.81,11.81,0,0,0,.12,1.24,3.62,3.62,0,0,0,1.14,1.8c.86.71,1.66,1.42,2.4,2.12s1.34.93,1.83.66c.41-.1.62,0,.62.16s.4.58,1.17,1.12a2.45,2.45,0,0,1,.86,1,1.89,1.89,0,0,0,1.21.81,7.77,7.77,0,0,0,3,.1q2-.21,5.9-1a10.4,10.4,0,0,0,5.81-3.19,11.81,11.81,0,0,0,2.49-5.14,26,26,0,0,0,.51-6.1c-.06-2.15-.13-4.14-.21-6a44,44,0,0,0-.17-7.44c-.28-3.37-.57-6.78-.86-10.25s-.45-6.58-.5-9.35.08-4.45.38-5a8.11,8.11,0,0,1,2.29-2.84,4.55,4.55,0,0,1,2.24-1.1c.58.06,1.27,1,2,2.7a9.67,9.67,0,0,1,1.12,4,23.92,23.92,0,0,0-.77,4.69,49.67,49.67,0,0,1-.74,5.3l.24,5.14.41,8.73.4,8.42.19,4.08c.1.41.35,1.35.76,2.82a22.67,22.67,0,0,1,.71,4.56q-.15,2.37-3.6,5.19a52.83,52.83,0,0,1-11.12,6.3,17.44,17.44,0,0,1-7.56,1.53,21.58,21.58,0,0,1-6.87-1.41ZM596.57,259a49.9,49.9,0,0,1-.82,11.64,17.13,17.13,0,0,1-5.69,8.09,36.54,36.54,0,0,1-7.73,4.58,35.65,35.65,0,0,1-9.55,2.68,33.37,33.37,0,0,0,4.64-1.58q2.07-.84,4.81-1.9a34.33,34.33,0,0,0,5.76-2.94,14.38,14.38,0,0,0,4.33-4,20,20,0,0,0,2.39-4.64,17.45,17.45,0,0,0,1-4.27,11.19,11.19,0,0,1,.49-2.81v-7c0-1.86-.06-4-.17-6.32l-.34-7.24-.9-18.94q1,10.38,1.42,19.41Q596.45,251.25,596.57,259Zm38.15-14.51q-.47-10-1-22.66l3.4,45.74-.75-.21a6.54,6.54,0,0,1-.41-2c-.18-1.35-.35-3.1-.49-5.25s-.28-4.56-.41-7.24Zm18.6,39.32-6.06.28c-1.9.09-3.15-.06-3.74-.44l17.71-.59q-4.23.56-7.91.74Zm8.51-3.75a3.47,3.47,0,0,0-1.62-.3h-4.47q-4.1,0-9,.17c-3.3.12-6.32.2-9,.25l-4.34.07a9.78,9.78,0,0,1-2.39-.56,3.41,3.41,0,0,1-2.3-1.57c-.11-.41-.32-1.93-.65-4.56s-.7-5.55-1.1-8.76-.75-6.29-1.06-9.25-.47-4.86-.51-5.69l-.25-5.26c-.12-2.6-.19-5.28-.19-8s-.05-5.29-.11-7.57-.1-3.44-.11-3.53a5.24,5.24,0,0,0-.77-1.82,2.87,2.87,0,0,1-.3-2.47,6.17,6.17,0,0,1,1.7-2.13,3,3,0,0,1,3.13-.7c1.27.52,2,1.8,2.35,3.86s0,3.39-.86,4l.89,18.94.32,6.68c.1,2.23.24,4.32.42,6.25s.29,3.52.34,4.76l.1,2a42.37,42.37,0,0,0,.53,4.63c.31,2.18.47,3.43.48,3.76s.51.58,1.45.49,1.67-.14,2.17-.16l18.57-.88a21.92,21.92,0,0,0,4.66-1.09,22.37,22.37,0,0,1,4.91-1.1,3.23,3.23,0,0,1,2.82,1.85,5.58,5.58,0,0,1,.81,4.06,3.69,3.69,0,0,1-1.91,3,6.64,6.64,0,0,1-2.62.93,4.52,4.52,0,0,1-2.09-.31Zm7.59.32a4.92,4.92,0,0,1-2,1.4,6.37,6.37,0,0,1-3.25-.59,2.81,2.81,0,0,0,1.25.19,6.22,6.22,0,0,0,2.33-.48,4.34,4.34,0,0,0,1.13-1.17,17.39,17.39,0,0,0,1-1.66,6.9,6.9,0,0,0,.89-2.28c-.22,2.32-.64,3.85-1.35,4.58Zm70-2.8a6.18,6.18,0,0,1-3,1.44,14.81,14.81,0,0,1-2-.1c-.83-.08-1.81-.2-2.93-.35s-2.21-.33-3.25-.53a11.5,11.5,0,0,0-2.18-.27L722,278l-7.92.38q-4.27.19-7.81.3l-4.15.14a3.7,3.7,0,0,1-2.32-1.88,5.9,5.9,0,0,1-1-2.19c0-.08-.13-1-.37-2.64s-.52-3.54-.82-5.55-.56-4-.78-5.86-.33-3.16-.36-3.83a25.58,25.58,0,0,1,.27-4.79c.25-1.7.44-2.89.57-3.56a6.24,6.24,0,0,0,0-2.36c-.14-1.15-.3-2.38-.49-3.7s-.39-2.68-.63-4.12a31.87,31.87,0,0,1-.41-3.52c0-.91-.06-2.17,0-3.78s.07-3.31.19-5.1a33.74,33.74,0,0,1,.64-4.8,5,5,0,0,1,1.3-2.8,11.9,11.9,0,0,1,3.44-.65c1.73-.17,3.63-.26,5.69-.27h9.31c.54,0,1.42-.11,2.53-.24s2.2-.31,3.26-.53l3.07-.64a8.22,8.22,0,0,0,2.2-.72,7.67,7.67,0,0,1,2.68-1.06,4,4,0,0,1,2.61.06,5.05,5.05,0,0,1,2.41,2.5,5.71,5.71,0,0,1,1,3.42,8,8,0,0,1-.93,2.59,3.42,3.42,0,0,1-2.84,1.56,12.27,12.27,0,0,1-4.27.2,25.67,25.67,0,0,0-3.92-.18c-.58,0-2.06.14-4.45.33l-7.67.61q-4.8.6-10.5,1a14,14,0,0,0-.08,3.42l.27,5.75.38,8a9.28,9.28,0,0,0,2.34-.36,22,22,0,0,1,2.28-.23,4,4,0,0,0,1.78-.46,15.6,15.6,0,0,1,1.93.1l2.74.24a22.74,22.74,0,0,0,2.86,0l2-.09a24,24,0,0,0,3.29-1.21,6.72,6.72,0,0,1,3.44-.72,17.4,17.4,0,0,0,2.78,1c1.09.33,1.55,1.32,1.38,3a15.33,15.33,0,0,1-.44,3.87c-.28,1-1.28,1.63-3,1.87a6.51,6.51,0,0,1-3.09.34c-.5-.19-1.09-.43-1.77-.73A9.21,9.21,0,0,0,718,250l-3.9.18c-1.4.07-2.72.17-4,.31s-2,.22-2.22.23a3.25,3.25,0,0,1-2.35.23,2,2,0,0,0-2,.34c-.33.1-.54.73-.65,1.9s-.2,2.42-.26,3.79a32.85,32.85,0,0,0,.07,4.09,5.25,5.25,0,0,0,.42,2.28,8,8,0,0,1,.67,2.39c.07.78.12,1.29.13,1.54a8.62,8.62,0,0,1-.4,2.07c-.28,1-.12,1.72.47,2a3.69,3.69,0,0,0,2.79-.07,13.49,13.49,0,0,1,3-.7c.49,0,1.57,0,3.23.1s3.48.21,5.47.36,3.88.27,5.66.35a9.2,9.2,0,0,0,3.65-.29,25.79,25.79,0,0,0,5.62-1.88q3.52-1.53,5-1.11c1.17.2,1.94,1.09,2.3,2.69a23.06,23.06,0,0,1,.62,3.88,4.53,4.53,0,0,1-1.93,2.89Zm-12.63-37.69-3.58-2.18a5.13,5.13,0,0,1,1.52.55,6.2,6.2,0,0,1,2.08,1.62Zm-19.46-7.45a16,16,0,0,0,.93,3.86,1.81,1.81,0,0,0,1.74,1.4l2.87.36a14.85,14.85,0,0,0,2.49.13h.93a13.57,13.57,0,0,1-2.29.23,26.14,26.14,0,0,0-4.13.57c-1.65.16-3.58.29-5.81.39a4.09,4.09,0,0,1,.44-1.13,12,12,0,0,0,0-2.24l-.2-4.21a26.72,26.72,0,0,1,.09-3.35l11.76-.56c-1.47.32-2.78.63-3.92.93a12,12,0,0,1-2.76.75,3,3,0,0,0-1.65.58c-.44.23-.61,1-.47,2.28ZM717,253.62c.08,0-.27,0-1,.11s-1.73.23-2.84.45-2.13.39-3.07.51l-1.42.19.55-.21a16.9,16.9,0,0,1,2.51-.67c1.06-.22,2.11-.41,3.14-.59A3,3,0,0,1,717,253.62Zm-8.76,12.06-1.45.33c-.18-2-.39-3.87-.64-5.67-.24-1.56-.43-3-.58-4.26s-.22-2.12-.24-2.53c.37.81.7,1.62,1,2.44a12.49,12.49,0,0,1,.83,3c.17,1.1.42,2.4.74,3.87.15,1.4.25,2.3.31,2.71,0,.05.06.07.07.11Zm82.81-59.85,2.1-.1a18.46,18.46,0,0,1,4.78,1.33,45.08,45.08,0,0,1,5.69,2.4,15.75,15.75,0,0,1,3.89,3.48c1.49,1.71,2.15,2.73,2,3.06a.8.8,0,0,0,.29,1,2.47,2.47,0,0,0,.4.61l.89.45c.67.22,1,.45,1,.7l-.59.64a1.15,1.15,0,0,1-.61.28,19.13,19.13,0,0,0,.73,2.45c.12.82.23,1.62.3,2.4s.13,1.38.15,1.79a4.57,4.57,0,0,1-1.27,3.29,21.22,21.22,0,0,0-1.7,2.07c-.23.35-.73.34-1.24,0a1.69,1.69,0,0,1-.81-1.39l.73-.15a3.53,3.53,0,0,1,1-.61,8.1,8.1,0,0,0,1.75-1.14,3.55,3.55,0,0,0,1-2.09,5.82,5.82,0,0,0-.19-2.78c-.22-1-.51-2.09-.9-3.31l-.54-1-.31-1.23a2.85,2.85,0,0,0-.42-1.09,14.36,14.36,0,0,1-1-1.57c-.32-.56-.79-1.32-1.41-2.29a14,14,0,0,0-3.72-2.67,45.46,45.46,0,0,0-5.46-2.48c-2.18-.61-4.52-1.3-7-2Zm-14.83,61.75a26.31,26.31,0,0,1-4.24-4.33,20.15,20.15,0,0,1-2.9-5,13.41,13.41,0,0,1-1.07-4.36,4.07,4.07,0,0,1,.66-2.88,9.23,9.23,0,0,1,1.49-1.44,3.48,3.48,0,0,1,2.23-.1,1.66,1.66,0,0,0-.14-.37,1,1,0,0,1-.31-1.1c0-.57.37-1,1.18-1.42a4.46,4.46,0,0,0,1.1-.42,4.53,4.53,0,0,1-.09.74,2.86,2.86,0,0,0-.42,1.64,2.49,2.49,0,0,0,.32,1.6,2.82,2.82,0,0,0,1,.94,1,1,0,0,0,.89.52c.41,0,.81.43,1.18,1.24a1.33,1.33,0,0,1-.11,1.68,2.32,2.32,0,0,0-.6,1.71,2.86,2.86,0,0,0,.77,1.88c.48.52,1.33,1.45,2.55,2.8a22.57,22.57,0,0,1,1.82,1.84,5.45,5.45,0,0,0,1.93,1.39,10.71,10.71,0,0,0,3,.73,29.08,29.08,0,0,0,4.85.08q6.06-.29,9.39-3.3c2.22-2,3.59-3.72,4.1-5.15a8.06,8.06,0,0,0,0-5.64,10,10,0,0,0-3.09-5.13,10.81,10.81,0,0,0-3.54-1.39q-2.38-.57-5.32-1t-5.74-.72c-1.87-.2-3.43-.39-4.68-.58l-4-.93a9.51,9.51,0,0,1-4.19-2.22,15.48,15.48,0,0,1-3.45-4.62,19.52,19.52,0,0,1-1.74-8,11.63,11.63,0,0,1,2.53-8.12,20.19,20.19,0,0,1,6.7-5.4,28.29,28.29,0,0,1,8.31-2.69,24.18,24.18,0,0,1,7-.33,12.25,12.25,0,0,1,5.3,1.86,33.57,33.57,0,0,1,4.25,3.27,28.85,28.85,0,0,1,3.33,3.57,9.69,9.69,0,0,1,1.68,2.77,5.9,5.9,0,0,1,.15,4.52,4.46,4.46,0,0,1-2.16,2.77,1.63,1.63,0,0,1-1,.42,3,3,0,0,1-2.27-.76,2.28,2.28,0,0,1-1.21-1.93,3.41,3.41,0,0,0-.47-2,15.28,15.28,0,0,0-2.43-3,11.75,11.75,0,0,0-3.53-2.56c-1-.67-2.75-.88-5.18-.63a37,37,0,0,0-5.72,1,10.05,10.05,0,0,0-2.81,1.06,27,27,0,0,0-3.25,2,20.09,20.09,0,0,0-2.75,2.37,3.49,3.49,0,0,0-1.11,2.59,5.71,5.71,0,0,0,2.31,4.36,11.64,11.64,0,0,0,3,2c.83.13,1.16.2,1,.2s.51.31,2,.9a16.9,16.9,0,0,0,5.46,1.35,28.06,28.06,0,0,1,5.06.88,13.45,13.45,0,0,0,4.37.54,5.49,5.49,0,0,0,2.35-.11.38.38,0,0,1-.13-.24,3.84,3.84,0,0,1,.07-1.12c.32-.18.89,0,1.7.48a21.62,21.62,0,0,1,3,2.4q1.56,1.67,4.07,4.77a15,15,0,0,1,3.09,7.67,14,14,0,0,1-1.51,8.75,28,28,0,0,1-5.3,7.33,16.91,16.91,0,0,1-4.47,2.63,24.09,24.09,0,0,1-6.06,1.65,37.16,37.16,0,0,1-6.75.32,17.15,17.15,0,0,1-6.27-1.38,19,19,0,0,1-5.14-2.85Zm1.34-18.93a21.12,21.12,0,0,1,1.33,2c.29.81.71,1.91,1.28,3.29a6.45,6.45,0,0,0,1.48,2.54,10.52,10.52,0,0,0,1.84.84,8.08,8.08,0,0,0,1.94.47,6.27,6.27,0,0,0,1.37.06l1.73-.09a6.68,6.68,0,0,1,2.13.28l-3.72.17a16.11,16.11,0,0,1-2.86-.11,4.79,4.79,0,0,1-2.4-1,16.82,16.82,0,0,1-3.16-5.18,19.21,19.21,0,0,0-2.51-4.6,6.92,6.92,0,0,0-1.5-1.41c-.55-.39-.67-.59-.34-.61a13.53,13.53,0,0,1,3.08.72,16.22,16.22,0,0,0,3.7.82,2.73,2.73,0,0,0,1.2.44,13.92,13.92,0,0,0,1.81.29,7.32,7.32,0,0,0,2,.65l-2.47.11a10.11,10.11,0,0,1-1.74,0,10.39,10.39,0,0,0-1.37-.06l-.93.05a4.68,4.68,0,0,1-1.18-.07,9.58,9.58,0,0,0-1.38-.43c.3,0,.52.3.71.78Zm3.7-21.39a4.32,4.32,0,0,0,1.86,1.22,14.29,14.29,0,0,0,3.27.9l3.31.53a13.07,13.07,0,0,0,1.87.22,17.77,17.77,0,0,1,2.77.86l1.65.79h-3.47l-2.85.13a4.37,4.37,0,0,1-1.87-.16h-2.17a16.83,16.83,0,0,1-2.92-.23,10.41,10.41,0,0,1-2.83-.86,3.78,3.78,0,0,1-1-6.22,6.57,6.57,0,0,1,3.87-2.17H785a20.91,20.91,0,0,1,2.36.08,15.45,15.45,0,0,0,2.62.37l-5,.23a5.84,5.84,0,0,0-3.41,1.34,1.91,1.91,0,0,0-.55,2.66,1.48,1.48,0,0,0,.25.31Zm34.57,23.93a37.37,37.37,0,0,1-.7,6.24,26.42,26.42,0,0,1-2.35,6.81,17.37,17.37,0,0,1-4.8,5.93,21.73,21.73,0,0,1-7.09,3.69,43,43,0,0,1-7.18,1.58,29.81,29.81,0,0,1-5.82.21l-2.62-.19c-.34-.23.34-.32,2-.28s3.33,0,4.9,0a19.8,19.8,0,0,0,6-1.59,44.75,44.75,0,0,0,6.91-3.49,33.6,33.6,0,0,0,5.78-5q2.65-2.85,3.81-10a17.17,17.17,0,0,0-.37-6.62,25.58,25.58,0,0,0-2.07-5.55,28.11,28.11,0,0,0-3.46-5.17l-1.41-.8c-.93-.45-1.15-.79-.66-1s1,0,1.84.84,1.71,1.8,2.68,2.92a25.61,25.61,0,0,1,2.65,3.72,12.85,12.85,0,0,1,1.53,3.4,15.53,15.53,0,0,1,.47,4.35Z" transform="translate(-10.17 -10.64)"/><path class="a" d="M209.12,95.75c-.24-.59-.84-2.06-1.79-4.43s-2-4.85-3.18-7.43S201.93,79,201,77s-1.6-3.08-1.93-3.25c-.74-.26-1.2-.14-1.37.35a8.45,8.45,0,0,1-1.15,2,16.75,16.75,0,0,1-1.63,1.84c-.59.57-.76.9-.52,1,.41.26.84.53,1.29.83s.68.61.67.94q0,.12-.78,2.16c-.51,1.35-1.14,2.91-1.86,4.68s-1.42,3.49-2.06,5.17a33.19,33.19,0,0,0-1.24,3.64,9.17,9.17,0,0,1-1,2.4c-.51.86-1,1.66-1.53,2.39a12,12,0,0,0-1.15,2c-.25.62-.22,1,.11,1.06a9.77,9.77,0,0,0,1.73.58,7.91,7.91,0,0,0,3.36-.63,25.32,25.32,0,0,0,3.48-1.25q1.13-.54,1.62,0a14,14,0,0,0,5.07.69,9.34,9.34,0,0,1,2.28.41c1,.26,1.86.48,2.72.66a6.59,6.59,0,0,0,2.17.15,1,1,0,0,0,1-.85,9.35,9.35,0,0,0,.25-3.9A13.21,13.21,0,0,0,209.12,95.75Zm-14.37-.59-.9,2c.35-1.32.79-2.72,1.3-4.2a20,20,0,0,1,1.11-3.52,5.39,5.39,0,0,1,1.34-2.14,13,13,0,0,0-.53,2.22,4.68,4.68,0,0,1-.91,2.46,9.3,9.3,0,0,1-.52,1.36C195.39,93.89,195.09,94.5,194.75,95.16Zm.8,4.1h1A4,4,0,0,0,198,99c.58-.16,1,.1,1.35.76a10.58,10.58,0,0,1,.71,1.87Z" transform="translate(-10.17 -10.64)"/><path class="a" d="M651.63,102.44c-.24-.59-.84-2.06-1.79-4.43s-2-4.84-3.18-7.42-2.22-4.87-3.18-6.87-1.6-3.08-1.93-3.25c-.74-.26-1.2-.14-1.37.35a8.45,8.45,0,0,1-1.15,2,17.75,17.75,0,0,1-1.63,1.83c-.59.57-.76.9-.52,1,.41.26.84.53,1.29.83s.68.61.67.94q0,.12-.78,2.16c-.51,1.35-1.14,2.91-1.86,4.68s-1.42,3.49-2.06,5.17A35.05,35.05,0,0,0,632.9,103a9.17,9.17,0,0,1-1,2.4q-.76,1.29-1.53,2.4a11.38,11.38,0,0,0-1.15,2c-.25.62-.22,1,.11,1.06a9.77,9.77,0,0,0,1.73.58,7.76,7.76,0,0,0,3.36-.63,25.32,25.32,0,0,0,3.48-1.25q1.13-.54,1.62,0a14,14,0,0,0,5.07.69,9.34,9.34,0,0,1,2.28.41c1,.26,1.86.48,2.72.66a6.88,6.88,0,0,0,2.17.16,1,1,0,0,0,1-.86,9.35,9.35,0,0,0,.25-3.9A13.17,13.17,0,0,0,651.63,102.44Zm-14.37-.59-.9,2c.35-1.32.79-2.72,1.3-4.2a19.61,19.61,0,0,1,1.11-3.51A5.43,5.43,0,0,1,640.11,94a13,13,0,0,0-.53,2.22,4.68,4.68,0,0,1-.91,2.46,9.3,9.3,0,0,1-.52,1.36C637.9,100.58,637.6,101.19,637.26,101.85Zm.8,4.1h1a4,4,0,0,0,1.49-.22c.58-.16,1,.1,1.35.76a10.58,10.58,0,0,1,.71,1.87Z" transform="translate(-10.17 -10.64)"/><path class="a" d="M754.73,21.82l-4-.06-69.52-1.05-5-.08-66.79-1-6.45-.1-66.17-1-5.7-.08-58.61-.89-14.25-.21-146.1-2.21-3.59-.06L238.74,14l-5-.08-67.78-1-5.46-.09L90.86,11.78H87.64L12.42,10.64,10.17,162l75.22,1.14,3.22.05,69.65,1,5.45.09,67.78,1,5,.08,69.89,1,3.59.06,146,2.35,14.25.21,58.61.89,5.71.08,66.17,1,6.44.1,66.79,1,5,.08,69.52,1.05,4,.06L827,174.36l2.29-151.43Zm-702,29.79h2.11a18.11,18.11,0,0,1,4.69,1.62A45.91,45.91,0,0,1,65.06,56a15.91,15.91,0,0,1,3.66,3.71c1.38,1.8,2,2.86,1.82,3.19a.82.82,0,0,0,.23,1,2.57,2.57,0,0,0,.36.62L72,65c.66.26,1,.51,1,.76l-.63.61a1.28,1.28,0,0,1-.62.24,17.64,17.64,0,0,0,.58,2.49c.07.82.12,1.63.15,2.41s0,1.39,0,1.8A4.61,4.61,0,0,1,71,76.52a17.33,17.33,0,0,0-1.82,2c-.25.37-.75.3-1.24-.08A1.75,1.75,0,0,1,67.2,77l.75-.11A3.54,3.54,0,0,1,69,76.35a8.42,8.42,0,0,0,1.81-1,3.49,3.49,0,0,0,1.09-2,6,6,0,0,0,0-2.79q-.22-1.49-.69-3.36l-.48-1L70.51,65a3,3,0,0,0-.36-1.12,15.94,15.94,0,0,1-.9-1.62c-.29-.58-.71-1.38-1.27-2.38a13.77,13.77,0,0,0-3.55-2.9,46.15,46.15,0,0,0-5.29-2.81c-2.14-.75-4.44-1.58-6.88-2.49a2.57,2.57,0,0,0,.48,0Zm-18.64,60.7a26,26,0,0,1-4-4.58,20,20,0,0,1-2.58-5.12,13.59,13.59,0,0,1-.8-4.42,4.13,4.13,0,0,1,.84-2.83A9.12,9.12,0,0,1,29.12,94a3.41,3.41,0,0,1,2.23,0,1,1,0,0,0-.11-.37A1,1,0,0,1,31,92.53q0-.87,1.26-1.35a4.11,4.11,0,0,0,1.13-.35,3.72,3.72,0,0,1-.14.74,2.88,2.88,0,0,0-.52,1.6A2.52,2.52,0,0,0,33,94.79a2.82,2.82,0,0,0,1,1,1,1,0,0,0,.86.58c.41,0,.78.48,1.09,1.31a1.32,1.32,0,0,1-.21,1.67A2.33,2.33,0,0,0,35,101a2.83,2.83,0,0,0,.65,1.93c.44.54,1.24,1.52,2.37,2.94q.9.93,1.71,2a5.6,5.6,0,0,0,1.83,1.52,10.52,10.52,0,0,0,3,.91,30.05,30.05,0,0,0,4.83.38q6.07.09,9.59-2.7t4.41-4.89q1.14-2.1.33-5.64a9.88,9.88,0,0,0-2.77-5.31,10.5,10.5,0,0,0-3.44-1.6q-2.36-.72-5.25-1.32c-1.94-.4-3.83-.76-5.69-1.08s-3.4-.61-4.63-.87L38,86.09a9.46,9.46,0,0,1-4-2.48,15.29,15.29,0,0,1-3.15-4.82,19.47,19.47,0,0,1-1.24-8.07,11.59,11.59,0,0,1,3-8,20.12,20.12,0,0,1,7-5A28.55,28.55,0,0,1,48,55.56a24.51,24.51,0,0,1,7,.1,12.38,12.38,0,0,1,5.17,2.19,34.36,34.36,0,0,1,4,3.53,27.38,27.38,0,0,1,3.1,3.77A10.37,10.37,0,0,1,68.81,68a5.9,5.9,0,0,1-.13,4.52,4.41,4.41,0,0,1-2.34,2.63,1.59,1.59,0,0,1-1,.36,3,3,0,0,1-2.22-.9,2.3,2.3,0,0,1-1.09-2,3.38,3.38,0,0,0-.34-2,15.29,15.29,0,0,0-2.24-3.13,11.74,11.74,0,0,0-3.37-2.78q-1.47-1.14-5.13-.94a36,36,0,0,0-5.77.65,9.87,9.87,0,0,0-2.87.89,25.39,25.39,0,0,0-3.37,1.81,19.89,19.89,0,0,0-2.89,2.18,3.52,3.52,0,0,0-1.27,2.53,5.73,5.73,0,0,0,2,4.49,11.79,11.79,0,0,0,2.81,2.15c.83.18,1.16.26,1,.26s.49.34,2,1A16.9,16.9,0,0,0,48,81.43a28.67,28.67,0,0,1,5,1.2,14.16,14.16,0,0,0,4.32.8,5.52,5.52,0,0,0,2.36,0,.37.37,0,0,1-.12-.25,3.76,3.76,0,0,1,.14-1.11c.33-.16.89,0,1.66.58a22,22,0,0,1,2.88,2.58c1,1.18,2.23,2.85,3.76,5a15,15,0,0,1,2.61,7.85,14,14,0,0,1-2,8.64,27.86,27.86,0,0,1-5.74,7,17.13,17.13,0,0,1-4.63,2.35,24,24,0,0,1-6.15,1.27,37.24,37.24,0,0,1-6.76-.1,17.1,17.1,0,0,1-6.17-1.77,18.9,18.9,0,0,1-5-3.16Zm2.52-18.8a21,21,0,0,1,1.2,2.12c.24.83.59,2,1.07,3.37a6.38,6.38,0,0,0,1.32,2.62,10.12,10.12,0,0,0,1.79,1,8,8,0,0,0,1.91.58,6.23,6.23,0,0,0,1.36.15H47a6.64,6.64,0,0,1,2.11.41l-3.72-.06a16,16,0,0,1-2.85-.29,4.83,4.83,0,0,1-2.34-1.15,17.19,17.19,0,0,1-2.83-5.37,18.55,18.55,0,0,0-2.22-4.75,6.93,6.93,0,0,0-1.4-1.51c-.53-.42-.63-.62-.3-.62a13.67,13.67,0,0,1,3,.91,16.48,16.48,0,0,0,3.64,1,2.85,2.85,0,0,0,1.17.51,15.92,15.92,0,0,0,1.79.4,7.17,7.17,0,0,0,2,.78H42.57a10.14,10.14,0,0,1-1.74-.15,7.76,7.76,0,0,0-1.36-.15h-.93a5.13,5.13,0,0,1-1.17-.14A9.3,9.3,0,0,0,36,92.7c.25,0,.45.3.61.81Zm5-21.12a4.24,4.24,0,0,0,1.77,1.33,14.5,14.5,0,0,0,3.21,1.1l3.27.73a13,13,0,0,0,1.86.34,18.74,18.74,0,0,1,2.71,1l1.6.89c-1.08-.09-2.23-.15-3.47-.17l-2.85,0a4.73,4.73,0,0,1-1.86-.27,19.23,19.23,0,0,1-2.16-.1,17.89,17.89,0,0,1-2.91-.41,10.43,10.43,0,0,1-2.77-1,3.78,3.78,0,0,1-1.53-5.12,3.57,3.57,0,0,1,.94-1.14,6.56,6.56,0,0,1,4-1.93,19.28,19.28,0,0,1,2.23.1c.91.1,1.7.13,2.36.22a16.32,16.32,0,0,0,2.59.54l-5-.08a5.8,5.8,0,0,0-3.48,1.12,1.91,1.91,0,0,0-.66,2.63,1.31,1.31,0,0,0,.19.27Zm33,26a38.09,38.09,0,0,1-1.09,6.18,26.34,26.34,0,0,1-2.76,6.65,17.73,17.73,0,0,1-5.17,5.63,22,22,0,0,1-7.3,3.23A41.64,41.64,0,0,1,51,121.21a28.31,28.31,0,0,1-5.82-.15l-2.6-.35c-.33-.25.36-.3,2-.15s3.32.24,4.89.26a19.23,19.23,0,0,0,6.09-1.21,47,47,0,0,0,7.11-3,34.57,34.57,0,0,0,6.08-4.62q2.83-2.68,4.43-9.73a17.2,17.2,0,0,0,0-6.63,25.35,25.35,0,0,0-1.72-5.66,27.32,27.32,0,0,0-3.14-5.38L67,83.65c-.9-.51-1.1-.84-.6-1s1,.08,1.78,1,1.6,1.9,2.5,3.07a25.94,25.94,0,0,1,2.42,3.88,13.26,13.26,0,0,1,1.31,3.49,15.34,15.34,0,0,1,.26,4.33ZM122.68,87.1c-1,0-1.64-.77-2-2.26a5,5,0,0,1-.34-1.87c.56.92,1,1.67,1.45,2.25s.51,1,.79,1.44.37.64.1.47Zm-8.52-18.42q1.57,2.82,3.51,5.94,2.3,3.76,5,8c-.51.66-1.37,0-2.58-2s-2.45-4.19-3.74-6.69-2.34-4.74-3.18-6.74c-.34-.82-.58-1.37-.76-1.77Zm36.45,44.37c.76,1.91,1,3.36.62,4.35-.27,1.48-.41,2.35-.41,2.6v.86h.37a2.64,2.64,0,0,0,1.11-.21c-.84,1-1.35,1.44-1.5,1.44-.42.33-.63.36-.62.12a2.48,2.48,0,0,0-.48-1.13c-.08-.16-.39-.25-.93-.26h-1.55a5.34,5.34,0,0,1-1.67-.34,1.46,1.46,0,0,1-1-1.31,8.82,8.82,0,0,1-.32-3.11l.08-5.45q0-3.23.29-6.75c.16-2.35.25-4.64.29-6.88a67.32,67.32,0,0,0,.23-11.09,34.27,34.27,0,0,0-1-6.76c-.47-1.17-.81-2.06-1-2.68s-.55-.82-1-.58c-.42,0-1.17.71-2.27,2.14a17,17,0,0,1-2.14,2.5,5.7,5.7,0,0,0-.71,2,12.74,12.74,0,0,0-.35,2.54l-.06,4,1.1.76L130.43,103,138,92.09l-5.36,9.83,3-3.67-2.14,2.69c-.59.66-1.14,1.33-1.65,2s-.88,1.21-1.13,1.54c-.43.73-.75,1.31-1,1.72a1,1,0,0,1-.94.6c-.41,0-.51-.56-.28-1.68s.13-1.71-.28-1.8a4.52,4.52,0,0,0-2.56,1,3,3,0,0,1-3.29.26q-1.47-1.26-3.7-5.57a81.92,81.92,0,0,0-4.65-7.94,40.73,40.73,0,0,1-2.66-4.2c-1-1.7-1.92-3.33-2.84-4.87s-1.82-2.9-2.67-4.07-1.44-1.8-1.77-1.89a3.54,3.54,0,0,0-2.22-.28,1.92,1.92,0,0,0-1.51,1.34,30.57,30.57,0,0,0-.32,4.58,20.69,20.69,0,0,0,.42,5.09c.07.75.11,2.61.1,5.58s.08,6.12.23,9.42.3,6.31.43,9,.26,4,.43,3.91q.49-.12.54-3.09l.1-6.57q.06-3.6,0-6.76a10.17,10.17,0,0,1,.44-4.14,25.4,25.4,0,0,0,1.67-3.82c.51-1.48,1.15-2.25,1.89-2.33.25,0,.43,1.17.57,3.48s.19,4.9.19,7.75,0,5.54-.12,8.06-.12,3.94-.13,4.27a7.6,7.6,0,0,1-.77,2c-.43.82-.89,1.68-1.4,2.59a6.09,6.09,0,0,1-2,2.13,2.65,2.65,0,0,1-2.54.28c-1.9-.61-2.9-1.12-3-1.54a4.13,4.13,0,0,1,.09-1.85c0-.42,0-2.11.14-5.08s.22-6.22.4-9.73.33-6.79.46-9.85A35.44,35.44,0,0,1,98.65,85a8.86,8.86,0,0,0,.54-2.6c.09-1.15.24-2.33.42-3.52s.32-2.25.42-3.16.15-1.52.15-1.85a4.42,4.42,0,0,0-.65-1.75,26.18,26.18,0,0,1-1.26-2.68,12.55,12.55,0,0,1-.83-2.74A1.91,1.91,0,0,1,98,64.82c.42-.49,1.22-.06,2.4,1.28A60.14,60.14,0,0,1,104.19,71c1.38,1.92,2.75,3.82,4.13,5.7s2.47,3.28,3.28,4.21a20.07,20.07,0,0,1,3.9,4.76c.88,1.59,1.49,2.63,1.81,3.13.08.25.21,1,.4,2.18a20.59,20.59,0,0,0,.88,3.54,8.58,8.58,0,0,0,1.56,2.88q1,1.13,2.73-.09a12.41,12.41,0,0,0,3.46-3.54c1.23-1.72,2.39-3.54,3.5-5.46s2.18-3.87,3.24-5.84A52.74,52.74,0,0,1,136,77.67a23.74,23.74,0,0,0,2.78-4.11c.94-1.68,1.89-3.26,2.87-4.73a27.69,27.69,0,0,1,2.9-3.74,5.46,5.46,0,0,1,2.69-1.75,16,16,0,0,1,2.49-.34c1-.06,1.88-.09,2.66-.08a3.52,3.52,0,0,1,1.8.4c.4.25.32.58-.27,1a4.59,4.59,0,0,0-1.5,1,3.9,3.9,0,0,0-1.53,3.08c0,.74-.11,3.08-.3,7s-.33,8.15-.44,12.7-.23,8.77-.37,12.7-.22,6.29-.24,7.12a13.91,13.91,0,0,0,1.17,5.16Zm4.14,1.43c-.11,1.48-.24,2-.4,1.6A8.68,8.68,0,0,1,154,113q-.09-2.55-.15-6.33c0-2.52,0-5.35,0-8.49l.15-9.42q.41-11.26,1-25.27,0,15.25.08,27V108.7c0,2.42-.18,4.3-.28,5.81Zm31,6.17a15.43,15.43,0,0,1-2.39,2.32,1.05,1.05,0,0,1,.38-.74,1.52,1.52,0,0,1,.51-.8l.88-.67a12.23,12.23,0,0,0,1.53-2.82c.22-.71.48-1.41.77-2.1a7,7,0,0,1-1.62,4.84Zm2.57-5.79q3.72-.44,7.32-.51c2-.13,3.88-.21,5.7-.22a17,17,0,0,1,4.21.37Zm35.26,4.38a4.47,4.47,0,0,1-1.1,2.71c-.54.49-1.64.55-3.29.2a3.41,3.41,0,0,1-3.06-2.28c-.48-1.33-.83-2.41-1.07-3.24a4.9,4.9,0,0,0-.53-1.87q-.54-1.24-1.08-2.31c-.36-.7-.76-1.41-1.21-2.12a13.53,13.53,0,0,0-.78-1.19c-.41-.34-1.1-.18-2,.46a22.59,22.59,0,0,1-2.94,1.69,4.45,4.45,0,0,1-3.29.45,32.17,32.17,0,0,0-5.88-.46,17.51,17.51,0,0,0-5.72.59,8.67,8.67,0,0,1-3.1.64,2.1,2.1,0,0,1-2-1.15,1.4,1.4,0,0,0-1.66-.89c-.67.16-.9.54-.7,1.17a3.62,3.62,0,0,1-.1,2.16,22,22,0,0,1-.85,3.28,14,14,0,0,1-1.73,3.75c-.68,1.15-1.33,1.51-1.94,1.09a7.4,7.4,0,0,0-1.66-.9c-.74-.17-1-.88-.83-2.12a15.76,15.76,0,0,1,1.3-4.13,37.2,37.2,0,0,1,2.23-4.24,24,24,0,0,0,1.72-3.2,16.41,16.41,0,0,0,1.86-3.81,19.36,19.36,0,0,0,.85-3.09,13.7,13.7,0,0,0,.54-2.84,29.68,29.68,0,0,1,1.7-5.92,67.56,67.56,0,0,1,4-9c1.53-2.87,2.3-4.63,2.31-5.3a12.39,12.39,0,0,1,.21-1.92,10.26,10.26,0,0,1,.72-2.15,10,10,0,0,1,1.27-2.4,3.29,3.29,0,0,0,.77-1.79,5,5,0,0,0-.46-2,5.24,5.24,0,0,1-.33-2.6,11.63,11.63,0,0,1,.83-1.79,12.87,12.87,0,0,1,1.33-2,8.49,8.49,0,0,1,1.64-1.53,1.21,1.21,0,0,1,1.61,0,5.23,5.23,0,0,1,1.14,2.25c.27,1,.53,2,.76,3.11a23.15,23.15,0,0,1,.45,3.1,5.19,5.19,0,0,0,.46,2.12c.16.49.58,1.6,1.25,3.3s1.44,3.57,2.27,5.61,1.68,4.12,2.51,6.24a55.15,55.15,0,0,1,1.84,5.29c.48,1.25,1.13,3.06,2,5.42s1.72,4.74,2.68,7.11,1.81,4.55,2.56,6.55,1.26,3.24,1.5,3.74a7.79,7.79,0,0,0,2.18,3.07,2.61,2.61,0,0,1,.88,3.17Zm.76-9.78q-.5-.13-1.2-2.25c-.48-1.41-1.11-3.18-1.91-5.3s-1.7-4.55-2.74-7.29S216.35,89,215.15,86q-3.69-10-8.33-22.68,5.49,13.47,9.55,24.07,1.66,4.48,3.28,8.79c1.07,2.87,2,5.3,2.74,7.29s1.33,3.57,1.72,4.73.54,1.61.29,1.28ZM274.06,55h2.11a18,18,0,0,1,4.68,1.62,43.92,43.92,0,0,1,5.54,2.75,16.11,16.11,0,0,1,3.66,3.71c1.38,1.8,2,2.86,1.81,3.19a.81.81,0,0,0,.24,1,2.63,2.63,0,0,0,.36.63l.86.51c.66.25,1,.51,1,.75l-.63.61a1.08,1.08,0,0,1-.62.24,17.64,17.64,0,0,0,.58,2.49c.07.83.12,1.64.15,2.42s0,1.39,0,1.8a4.55,4.55,0,0,1-1.47,3.2,18.88,18.88,0,0,0-1.83,2c-.26.37-.75.3-1.23-.08a1.67,1.67,0,0,1-.73-1.43l.75-.12a3.79,3.79,0,0,1,1.06-.54,8.87,8.87,0,0,0,1.81-1,3.6,3.6,0,0,0,1.09-2,6,6,0,0,0,0-2.79c-.18-1.13-.41-2.25-.7-3.36l-.48-1-.23-1.24a2.62,2.62,0,0,0-.35-1.12,14.42,14.42,0,0,1-.91-1.63q-.42-.87-1.26-2.37a13.6,13.6,0,0,0-3.55-2.9,46.15,46.15,0,0,0-5.29-2.81C278.34,56.78,276,56,273.6,55Zm-18.64,60.7a26.52,26.52,0,0,1-4-4.59,19.74,19.74,0,0,1-2.59-5.12,14.14,14.14,0,0,1-.8-4.41,4.1,4.1,0,0,1,.85-2.84,9.59,9.59,0,0,1,1.57-1.34,3.54,3.54,0,0,1,2.23,0,.89.89,0,0,0-.12-.38,1,1,0,0,1-.23-1.12c0-.57.43-1,1.26-1.34a4.31,4.31,0,0,0,1.12-.36,3.8,3.8,0,0,1-.13.75,2.88,2.88,0,0,0-.52,1.6,2.43,2.43,0,0,0,.22,1.61,2.82,2.82,0,0,0,1,1,1,1,0,0,0,.86.57c.41,0,.77.49,1.09,1.32a1.32,1.32,0,0,1-.21,1.67,2.3,2.3,0,0,0-.71,1.66,2.84,2.84,0,0,0,.66,1.93l2.37,3a21.73,21.73,0,0,1,1.71,2,5.45,5.45,0,0,0,1.83,1.51,10.87,10.87,0,0,0,3,.92,31.25,31.25,0,0,0,4.83.38q6.07.09,9.59-2.71t4.41-4.89c.76-1.39.87-3.26.33-5.63a9.88,9.88,0,0,0-2.77-5.31,10.45,10.45,0,0,0-3.45-1.6q-2.34-.72-5.24-1.32c-1.94-.4-3.83-.76-5.69-1.08s-3.4-.61-4.63-.88l-3.95-1.17A9.59,9.59,0,0,1,255.25,87a15.26,15.26,0,0,1-3.14-4.82,19.64,19.64,0,0,1-1.25-8.07,11.62,11.62,0,0,1,3-8,20.12,20.12,0,0,1,7-5A27.82,27.82,0,0,1,269.32,59a24.51,24.51,0,0,1,7,.1,12.25,12.25,0,0,1,5.17,2.19,34.36,34.36,0,0,1,4,3.53,27.9,27.9,0,0,1,3.1,3.76,9.77,9.77,0,0,1,1.5,2.88A5.86,5.86,0,0,1,290,76a4.45,4.45,0,0,1-2.33,2.63,1.74,1.74,0,0,1-1,.36,3,3,0,0,1-2.21-.91,2.27,2.27,0,0,1-1.09-2,3.45,3.45,0,0,0-.34-2,15.13,15.13,0,0,0-2.25-3.14,12,12,0,0,0-3.36-2.77q-1.47-1.14-5.13-1a37.21,37.21,0,0,0-5.77.66,9.56,9.56,0,0,0-2.87.88,26.61,26.61,0,0,0-3.37,1.81,20.52,20.52,0,0,0-2.89,2.19,3.49,3.49,0,0,0-1.28,2.52,5.79,5.79,0,0,0,2,4.49A12.07,12.07,0,0,0,261,81.9c.82.18,1.16.27,1,.27s.49.33,2,1a16.85,16.85,0,0,0,5.36,1.69,29.57,29.57,0,0,1,5,1.19,13.6,13.6,0,0,0,4.32.81,5.52,5.52,0,0,0,2.36,0,.33.33,0,0,1-.12-.25,3.52,3.52,0,0,1,.14-1.12c.33-.16.88,0,1.66.59a23.48,23.48,0,0,1,2.88,2.58c1,1.17,2.23,2.83,3.76,5A15,15,0,0,1,292,101.5a14.06,14.06,0,0,1-2.05,8.65,28.07,28.07,0,0,1-5.75,7,17,17,0,0,1-4.62,2.34,23.87,23.87,0,0,1-6.15,1.27,36.36,36.36,0,0,1-6.76-.1,17.08,17.08,0,0,1-6.17-1.76,19.18,19.18,0,0,1-5.05-3.24Zm2.52-18.81a22.32,22.32,0,0,1,1.2,2.13c.24.83.59,2,1.07,3.36a6.35,6.35,0,0,0,1.32,2.63,10.85,10.85,0,0,0,1.78.95,8.05,8.05,0,0,0,1.92.59,5.66,5.66,0,0,0,1.36.14h1.73a6.52,6.52,0,0,1,2.1.4l-3.71,0a16,16,0,0,1-2.85-.29,4.83,4.83,0,0,1-2.34-1.15,16.93,16.93,0,0,1-2.83-5.38,18.48,18.48,0,0,0-2.22-4.74,6.93,6.93,0,0,0-1.4-1.51c-.54-.42-.64-.63-.3-.62a13.15,13.15,0,0,1,3,.91,17.64,17.64,0,0,0,3.64,1,2.85,2.85,0,0,0,1.17.51,14,14,0,0,0,1.79.4,6.85,6.85,0,0,0,2,.77h-2.48a11.11,11.11,0,0,1-1.73-.14,7.76,7.76,0,0,0-1.36-.15h-.93a4.64,4.64,0,0,1-1.17-.15,11.14,11.14,0,0,0-1.36-.51c.24,0,.44.32.6.81Zm5-21.11a4.31,4.31,0,0,0,1.78,1.32,14,14,0,0,0,3.21,1.11l3.27.73a14.5,14.5,0,0,0,1.86.34,17.63,17.63,0,0,1,2.71,1l1.59.89c-1.07-.1-2.22-.16-3.46-.18h-2.85a4.53,4.53,0,0,1-1.86-.28,21.63,21.63,0,0,1-2.17-.09,15.72,15.72,0,0,1-2.9-.42,10.5,10.5,0,0,1-2.78-1,3.79,3.79,0,0,1-1.52-5.14,3.94,3.94,0,0,1,.94-1.13,6.47,6.47,0,0,1,4-1.92,21.41,21.41,0,0,1,2.23.09c.91.09,1.69.14,2.35.23a15.37,15.37,0,0,0,2.6.53l-5-.07a5.77,5.77,0,0,0-3.49,1.12,1.94,1.94,0,0,0-.57,2.67l.12.16Zm33,26a38.09,38.09,0,0,1-1.09,6.18,26.36,26.36,0,0,1-2.77,6.65,17.56,17.56,0,0,1-5.16,5.62,21.77,21.77,0,0,1-7.3,3.24,42.61,42.61,0,0,1-7.27,1.13,29.79,29.79,0,0,1-5.82-.15c-1.65-.23-2.52-.35-2.6-.35-.33-.25.35-.3,2-.15s3.32.23,4.89.26A19.22,19.22,0,0,0,277,123a45.08,45.08,0,0,0,7.11-3.06,32.94,32.94,0,0,0,6.08-4.62c1.89-1.78,3.36-5,4.43-9.72a17.2,17.2,0,0,0,0-6.63,25.57,25.57,0,0,0-1.71-5.67,28,28,0,0,0-3.14-5.37L288.42,87c-.9-.51-1.1-.84-.6-1s1,.08,1.78,1,1.6,1.91,2.49,3.08A24,24,0,0,1,294.51,94a12.82,12.82,0,0,1,1.32,3.49,15,15,0,0,1,.17,4.28Zm55.47-17-6.08.65c-1.66.06-3.14.06-4.46,0a3,3,0,0,1-2.59-1.09Zm-16.3,39.52v-.62a3.08,3.08,0,0,1,.07-.68,1.34,1.34,0,0,1,.1-.33C335.22,123.23,335.15,123.78,335.11,124.3Zm1.68-12.74a42.12,42.12,0,0,1-.32,4.76,21.33,21.33,0,0,1-.59,3.07c0-.36.06-.68.07-1.09a25.55,25.55,0,0,0-.19-3.91c0-.33-.05-1.15-.15-2.48s-.15-2.73-.12-4.21l.05-3.6c0-.91.14-1.32.39-1.23.67.34,1,1.17,1,2.49Zm33.9-45.17a2,2,0,0,1-1.5.79,4.28,4.28,0,0,0-.8.11,1.69,1.69,0,0,0-.82.36c-.16.24-.29.45-.38.61l.49.75A2.8,2.8,0,0,1,369,71.27a13.58,13.58,0,0,1-.79,3.21,13.69,13.69,0,0,0-.81,4l-.05,3.41-.09,6.26-.13,8.11c0,2.94-.1,5.64-.18,8.12s-.15,4.63-.22,6.44-.11,3-.12,3.59a17.65,17.65,0,0,0,.15,2.3,12.35,12.35,0,0,0,.77,2.86,9.2,9.2,0,0,1,.64,2.68,9.52,9.52,0,0,1-.09,1.85,15.82,15.82,0,0,1-3.07,1.82,3.74,3.74,0,0,1-2.79.45q-.25-.12-.66-1.56a5.54,5.54,0,0,1,.05-3.1,16.28,16.28,0,0,0,.54-3.4c.06-1.15.09-1.9.1-2.23v-3.84a41.31,41.31,0,0,0-.47-5.77,39.1,39.1,0,0,1-.47-5.4,19.45,19.45,0,0,0-.15-2.85,1.59,1.59,0,0,0-.73-.76,5.23,5.23,0,0,1-1-.75L358.1,96a2,2,0,0,1-.75.61,1.8,1.8,0,0,1-1.14,1,2.45,2.45,0,0,1-1.37.53h-4c-1.08,0-2.48-.06-4.22-.13s-3.32-.19-4.76-.38-2.79-.31-4-.37l-2.23-.1a7.43,7.43,0,0,1-1.61-.27,3.13,3.13,0,0,0-2.24.34c-.83.65-.87,1.43-.09,2.35a3.85,3.85,0,0,1,1.14,2.13c0,.33-.06,1.34-.17,3s-.26,3.49-.45,5.38l-.49,7.81q.36.75.84,1.62a8.12,8.12,0,0,1,.85,1.38,2.85,2.85,0,0,1,.35,1.24c0,.75-.62,1.54-1.83,2.39a9.52,9.52,0,0,1-3.56,1.62,1.61,1.61,0,0,1-1.6-.58,9.9,9.9,0,0,1-.85-1.44,16.17,16.17,0,0,1-.66-1.62,4.86,4.86,0,0,1-.29-1.12l.06-3.72q0-3.47.42-7.74c.25-2.85.4-5.43.43-7.74l.07-4.46c0-.5-.18-2-.55-4.53a55.52,55.52,0,0,1-.56-8.25c0-3,0-5.85.07-8.62a15.41,15.41,0,0,1,.83-5.75A6.57,6.57,0,0,1,328.07,68a7.77,7.77,0,0,1,3.12-1.13,20.89,20.89,0,0,1,2.85-.2h1.8c.33,0,.49.38.48,1.13v1.11l-.45,13.63V75.3q-.09-2.35-.36-4.65a9,9,0,0,0-.4-2.3,15,15,0,0,0-1.62.47,4.79,4.79,0,0,1-1,.11c.11.21.23.42.36.62a12.86,12.86,0,0,1,.46,2.61,17.81,17.81,0,0,1-.94,4.33,12.94,12.94,0,0,0-.36,3.28V83.3a33.14,33.14,0,0,0,.25,4.34c.18,1.57.85,2.16,2,1.77a2.17,2.17,0,0,0,.88-.92,5,5,0,0,0,.51-1.29l.4-1.86a7.33,7.33,0,0,0,.11,1.24,11.63,11.63,0,0,1,.35,1.44,5,5,0,0,0,.59,1.55,2.89,2.89,0,0,0,1.89,2.2,18.22,18.22,0,0,0,4.77.51,30.08,30.08,0,0,0,6.2-.65c2.32-.46,3.77-.48,4.34-.06.57.59,1.14,1.22,1.71,1.88a3.6,3.6,0,0,0,1.84,1.27c.57.42,1,.49,1.36.21a3.78,3.78,0,0,0,.89-1.66,4.75,4.75,0,0,0,.53-1.85c.18-1.07.32-2.23.42-3.47s.16-2.47.18-3.71l0-3.1c0-.5,0-1.32-.09-2.48s-.15-2.34-.26-3.54a17.35,17.35,0,0,1,.06-3.53,4.21,4.21,0,0,1,.59-2.1A4,4,0,0,1,363.27,68a29.34,29.34,0,0,1,3.06-1.56,32.25,32.25,0,0,0,4.25-2c.58.76.62,1.4.11,1.92Zm1,34.23a6.7,6.7,0,0,0-.27,1.67,14.57,14.57,0,0,0-.15,1.86c.05,2.23.06,4,0,5.33l-.1,6.56a9.33,9.33,0,0,0-.15,2.11c0,.7-.07,1.4-.16,2.1l.08-5.33.06-4.21a22.63,22.63,0,0,0-.08-2.73,12.24,12.24,0,0,1-.22-2c-.06-1.08-.09-2.13-.07-3.16V95.61l.06-4.4c0-1.49.09-3,.19-4.52s.17-2.37.17-2.54c0-.33,0-1,.09-2s.1-2.17.11-3.41c0-1.57.09-3.14.2-4.71q-.1,6.57-.06,11.9.06,4.71.25,8.56c.12,2.56.18,4.09.17,4.58a5.79,5.79,0,0,1-.15,1.55ZM500,62.71a16.39,16.39,0,0,1,3.77,1,30.32,30.32,0,0,1,5.47,2.87,16.28,16.28,0,0,1,4.58,4.59,40.11,40.11,0,0,1,2.71,4.94,33.53,33.53,0,0,1,.77,3.58,8.65,8.65,0,0,1-.72-2.28A10.21,10.21,0,0,0,515,73.73a25.71,25.71,0,0,0-4-4.21,36.17,36.17,0,0,0-5.27-3.86,13.79,13.79,0,0,0-5.48-2c-2.11-.32-3.16-.64-3.15-1A17,17,0,0,1,500,62.71Zm1.31,65.16a13.53,13.53,0,0,1-5.53,1.21,21,21,0,0,1-6.67-1.52,22.42,22.42,0,0,1-7.68-4.89,28.84,28.84,0,0,1-6.24-9.33q-2.64-5.93-2.5-14.85a41.64,41.64,0,0,1,2.52-14.83,35.22,35.22,0,0,1,5.66-9.77,20.58,20.58,0,0,1,6.71-5.48,25.9,25.9,0,0,1,5.8-2.08,20,20,0,0,1,8.85.81,15.62,15.62,0,0,1,6,3.63c.65.67,1.42,1.53,2.31,2.57s1.76,2.18,2.56,3.33a26,26,0,0,1,2,3.37,6.57,6.57,0,0,1,.76,2.74,5.76,5.76,0,0,1-1.11,4.07,5.61,5.61,0,0,1-2.45,2.2l-.88.48a1.82,1.82,0,0,1-2-.28c-1.55-.93-2.18-2-1.87-3.31a3.64,3.64,0,0,0-.63-3.29A26.19,26.19,0,0,1,504.19,79a8.9,8.9,0,0,0-4.35-3.54,18.24,18.24,0,0,0-5.88-.7,14.75,14.75,0,0,0-7.54,2.73,9.37,9.37,0,0,0-3.4,4,28.52,28.52,0,0,0-2.08,6.1,50.42,50.42,0,0,0-1.1,7.24,54.92,54.92,0,0,0-.11,7.37,18.41,18.41,0,0,0,1.69,6.84,22.25,22.25,0,0,0,3.94,5.89,29.23,29.23,0,0,0,5.2,4.48,11,11,0,0,0,5.36,2q5.44.58,8.09-1.74a13.09,13.09,0,0,0,3.81-6.38c.61-2.39.54-4.13-.23-5.21a15.46,15.46,0,0,0-2.13-2.51c-.57-.67-.88-.84-.92-.51s-.4.61-1.07.85a19.54,19.54,0,0,1-2.18.89,2.61,2.61,0,0,1-2.29-.22,5.68,5.68,0,0,1-2.63-2.14,4,4,0,0,1-.62-4.23c.6-1.64,1.58-2.41,3-2.31s3.24.17,5.63.21a6.81,6.81,0,0,0,3.11-.63,10.46,10.46,0,0,0,2.25-1.4,15.74,15.74,0,0,0,1.65-2.32,1.4,1.4,0,0,0,.24.49c.16.34.28.61.36.82a1.84,1.84,0,0,0,.61.69A22.48,22.48,0,0,0,514.42,98a2.53,2.53,0,0,1,.71,2.55,17.8,17.8,0,0,1-.48,2.72,14.1,14.1,0,0,0-.35,3.1c0,.58,0,1.49.08,2.73s.09,2.5.07,3.78-.08,2.54-.18,3.77a7.28,7.28,0,0,1-.54,2.6,25.48,25.48,0,0,1-2.33,2.2,48.89,48.89,0,0,1-4.45,3.4,31.87,31.87,0,0,1-5.62,3.06Zm9-35.38-7.44-.11c.25-.33.83-.42,1.74-.28a20.64,20.64,0,0,0,2.72.22c1,.1,2,.16,3,.17ZM485,97.31q.25,7.93,2.07,10.76a15.21,15.21,0,0,0,3.78,4.21,6.37,6.37,0,0,0,1.84,1.14,8.64,8.64,0,0,0,1.85.52,6.52,6.52,0,0,0,1.73.52c-.59.58-1.14,1.15-1.64,1.72-1,1-1.68,1.46-2,1.45a6.12,6.12,0,0,1-1.78-.77,10.88,10.88,0,0,1-3.12-3,26.55,26.55,0,0,1-3.2-5.69,37.4,37.4,0,0,1-.77-18.35,45.4,45.4,0,0,1,2.32-5.92,15.32,15.32,0,0,1,3.29-4.41,24.77,24.77,0,0,0-2.31,5.05q-.78,2.34-1.51,5.62A26.42,26.42,0,0,0,485,97.31Zm33,19.59a11.24,11.24,0,0,1-2.23,4.24,21.16,21.16,0,0,1-3.46,3.36,30.68,30.68,0,0,1-4,3.29l3.39-3.42,2.58-2.51,1.7-1.64a5.72,5.72,0,0,0,.85-2.72c.14-1.23.22-2.64.25-4.21,0-.91.09-2,.23-3.34s.23-2.72.25-4.21a39.91,39.91,0,0,0-.12-4.09,7.11,7.11,0,0,0-.52-2.49,19.33,19.33,0,0,1-1.15-1.69c-.45-.71-.83-1.36-1.15-1.94l-1.83-2.13c.17-.5.48-.53.93-.11a12.27,12.27,0,0,1,1.4,1.57,18.68,18.68,0,0,1,1.4,1.94,5.36,5.36,0,0,1,.78,1.5,6.29,6.29,0,0,1,.77,2.49,32.28,32.28,0,0,1,.49,4.9c0,1.86.06,3.83,0,5.89A24.4,24.4,0,0,1,518,116.9Zm42.79-26.37q.15-10,.47-22.68l.54,45.87-.73-.26a6.16,6.16,0,0,1-.28-2c-.11-1.36-.16-3.12-.17-5.27s0-4.56,0-7.25ZM577,130.93l-6.07-.09a7.32,7.32,0,0,1-3.71-.68l17.72.52C582.08,130.88,579.43,131,577,130.93Zm8.73-3.21a3.49,3.49,0,0,0-1.61-.4c-.24,0-1.73-.09-4.45-.25s-5.74-.3-9-.39-6.32-.2-9-.32l-4.33-.19a9.68,9.68,0,0,1-2.35-.72c-1.23-.47-2-1-2.2-1.7-.08-.42-.2-2-.37-4.6s-.35-5.58-.55-8.81-.36-6.32-.48-9.3-.17-4.88-.16-5.7l.08-5.27q.06-3.9.31-8c.16-2.77.28-5.28.36-7.56s.12-3.44.12-3.53a5.64,5.64,0,0,0-.66-1.87,2.81,2.81,0,0,1-.15-2.48,6.36,6.36,0,0,1,1.83-2,3.06,3.06,0,0,1,3.17-.51c1.23.59,1.93,1.93,2.11,4s-.2,3.39-1.11,4L557,91l-.1,6.69q-.06,3.35,0,6.26c.05,2,.07,3.54.05,4.78v2c0,.91.06,2.46.24,4.65s.26,3.46.25,3.79.47.6,1.42.57,1.67,0,2.17,0l18.59.28a22.19,22.19,0,0,0,4.72-.8,22.27,22.27,0,0,1,5-.79,3.18,3.18,0,0,1,2.69,2,5.49,5.49,0,0,1,.56,4.1,3.71,3.71,0,0,1-2.09,2.88,6.79,6.79,0,0,1-2.67.77,4.73,4.73,0,0,1-2.15-.48Zm7.55.79a4.94,4.94,0,0,1-2.13,1.27,6.42,6.42,0,0,1-3.21-.79,2.8,2.8,0,0,0,1.24.27,6.32,6.32,0,0,0,2.36-.34,4.3,4.3,0,0,0,1.19-1.1,17.09,17.09,0,0,0,1.08-1.59,7.05,7.05,0,0,0,1-2.22q-.45,3.46-1.58,4.5Zm35.09-1.14a15,15,0,0,1-2.39,2.32,1.05,1.05,0,0,1,.38-.74,1.52,1.52,0,0,1,.51-.8l.88-.67a12.23,12.23,0,0,0,1.53-2.82,19.59,19.59,0,0,1,.78-2.1,7.08,7.08,0,0,1-1.74,4.81Zm2.57-5.79q3.72-.43,7.32-.51c2-.13,3.88-.21,5.7-.22a17,17,0,0,1,4.21.37ZM666.15,126a4.45,4.45,0,0,1-1.1,2.71c-.54.49-1.64.55-3.29.2a3.41,3.41,0,0,1-3.06-2.28c-.48-1.33-.83-2.41-1.07-3.24a4.9,4.9,0,0,0-.53-1.87q-.54-1.24-1.08-2.31c-.36-.7-.76-1.41-1.2-2.12a12,12,0,0,0-.79-1.19c-.41-.34-1.1-.18-2,.46a23.31,23.31,0,0,1-3,1.64,4.45,4.45,0,0,1-3.29.45,32.17,32.17,0,0,0-5.88-.46,17.21,17.21,0,0,0-5.71.59,8.73,8.73,0,0,1-3.11.64,2.1,2.1,0,0,1-2-1.15,1.4,1.4,0,0,0-1.66-.89c-.67.16-.9.55-.7,1.17a3.58,3.58,0,0,1-.1,2.17,23.1,23.1,0,0,1-.85,3.27,14,14,0,0,1-1.73,3.75c-.68,1.15-1.32,1.51-1.94,1.09a7.4,7.4,0,0,0-1.66-.9c-.74-.17-1-.88-.83-2.12a15.76,15.76,0,0,1,1.3-4.13,37.2,37.2,0,0,1,2.23-4.24,24,24,0,0,0,1.72-3.2,16.41,16.41,0,0,0,1.86-3.81,19.36,19.36,0,0,0,.85-3.09,13.7,13.7,0,0,0,.54-2.84,29.68,29.68,0,0,1,1.7-5.92,67.56,67.56,0,0,1,4-9c1.53-2.87,2.3-4.63,2.31-5.3a12.27,12.27,0,0,1,.21-1.91A9.75,9.75,0,0,1,637,80a10,10,0,0,1,1.27-2.4,3.41,3.41,0,0,0,.78-1.79,5.14,5.14,0,0,0-.47-2,5.24,5.24,0,0,1-.33-2.6,12.66,12.66,0,0,1,.83-1.79,12.87,12.87,0,0,1,1.33-2A8.25,8.25,0,0,1,642,66a1.21,1.21,0,0,1,1.61,0,5.18,5.18,0,0,1,1.14,2.25c.27,1,.53,2,.76,3.11a23.15,23.15,0,0,1,.45,3.1,5.19,5.19,0,0,0,.46,2.12c.16.49.58,1.6,1.25,3.3s1.44,3.57,2.27,5.61,1.68,4.12,2.51,6.24A55.15,55.15,0,0,1,654.29,97c.48,1.25,1.13,3.06,2,5.42s1.72,4.74,2.68,7.11,1.81,4.55,2.56,6.55,1.26,3.24,1.5,3.74a7.79,7.79,0,0,0,2.18,3.07A2.61,2.61,0,0,1,666.15,126Zm.76-9.78q-.49-.14-1.2-2.25c-.47-1.41-1.11-3.17-1.9-5.3s-1.71-4.55-2.75-7.29-2.14-5.61-3.34-8.6q-3.69-10-8.33-22.69,5.5,13.47,9.55,24.07,1.66,4.49,3.28,8.79c1.08,2.87,2,5.28,2.78,7.25s1.33,3.58,1.73,4.73.43,1.58.18,1.25Zm49.66-54.53h2.11a18,18,0,0,1,4.68,1.62,43.92,43.92,0,0,1,5.54,2.75,15.91,15.91,0,0,1,3.66,3.71c1.38,1.8,2,2.86,1.81,3.19a.81.81,0,0,0,.24,1,2.45,2.45,0,0,0,.36.63l.86.51c.66.25,1,.51,1,.76l-.63.61a1.1,1.1,0,0,1-.62.23,17.64,17.64,0,0,0,.58,2.49c.07.83.12,1.64.15,2.42s0,1.39,0,1.8a4.55,4.55,0,0,1-1.47,3.2,18.88,18.88,0,0,0-1.83,2c-.26.37-.75.3-1.23-.08a1.69,1.69,0,0,1-.73-1.43l.75-.12a3.79,3.79,0,0,1,1.06-.54,8.42,8.42,0,0,0,1.81-1,3.6,3.6,0,0,0,1.09-2,5.73,5.73,0,0,0,0-2.79,33.91,33.91,0,0,0-.7-3.36l-.48-1-.23-1.24a2.62,2.62,0,0,0-.35-1.12,14.42,14.42,0,0,1-.91-1.63q-.42-.87-1.26-2.37a13.6,13.6,0,0,0-3.55-2.9A46.06,46.06,0,0,0,723,64.1c-2.14-.75-4.44-1.58-6.88-2.49Zm-18.64,60.7a26.1,26.1,0,0,1-4-4.59,20.38,20.38,0,0,1-2.59-5.12,14.14,14.14,0,0,1-.8-4.41,4.1,4.1,0,0,1,.85-2.84,9.59,9.59,0,0,1,1.57-1.34,3.54,3.54,0,0,1,2.23,0,.89.89,0,0,0-.12-.38,1,1,0,0,1-.23-1.12c0-.57.43-1,1.26-1.34a4.31,4.31,0,0,0,1.12-.36,3.8,3.8,0,0,1-.13.75,2.88,2.88,0,0,0-.52,1.6,2.43,2.43,0,0,0,.22,1.61,2.82,2.82,0,0,0,1,1,1,1,0,0,0,.86.57c.41,0,.77.49,1.09,1.32a1.32,1.32,0,0,1-.21,1.67,2.26,2.26,0,0,0-.71,1.66,2.84,2.84,0,0,0,.66,1.93l2.37,3a21.73,21.73,0,0,1,1.71,2,5.25,5.25,0,0,0,1.83,1.51,10.87,10.87,0,0,0,3,.92,31.25,31.25,0,0,0,4.83.38q6.07.09,9.59-2.71t4.41-4.89c.76-1.39.87-3.26.33-5.63a9.88,9.88,0,0,0-2.77-5.31,10.45,10.45,0,0,0-3.45-1.6q-2.34-.72-5.24-1.32c-1.94-.4-3.83-.76-5.69-1.08s-3.4-.61-4.63-.88l-4-1.17a9.59,9.59,0,0,1-4.06-2.48,15.26,15.26,0,0,1-3.14-4.82,19.64,19.64,0,0,1-1.25-8.07,11.62,11.62,0,0,1,3-8,20.12,20.12,0,0,1,7-5,28.49,28.49,0,0,1,8.46-2.16,24.51,24.51,0,0,1,7,.1A12.06,12.06,0,0,1,724,68a34.36,34.36,0,0,1,4,3.53,27.9,27.9,0,0,1,3.1,3.76,9.77,9.77,0,0,1,1.5,2.88,5.81,5.81,0,0,1-.13,4.52,4.42,4.42,0,0,1-2.33,2.63,1.74,1.74,0,0,1-1,.36,3,3,0,0,1-2.21-.9,2.3,2.3,0,0,1-1.09-2,3.45,3.45,0,0,0-.34-2,15.13,15.13,0,0,0-2.25-3.14,11.64,11.64,0,0,0-3.36-2.77q-1.47-1.14-5.13-1a37.21,37.21,0,0,0-5.77.66,10,10,0,0,0-2.87.88,28.72,28.72,0,0,0-3.37,1.81,20.52,20.52,0,0,0-2.89,2.19A3.49,3.49,0,0,0,698.58,82a5.79,5.79,0,0,0,2,4.49,11.78,11.78,0,0,0,2.82,2.15c.83.18,1.17.27,1,.27s.49.34,2,1a16.85,16.85,0,0,0,5.36,1.69,29.57,29.57,0,0,1,5,1.19,13.6,13.6,0,0,0,4.32.81,5.52,5.52,0,0,0,2.36,0,.33.33,0,0,1-.12-.25,3.52,3.52,0,0,1,.14-1.12c.33-.16.88,0,1.66.59A23.48,23.48,0,0,1,728,95.38c1,1.17,2.22,2.83,3.76,5a15,15,0,0,1,2.61,7.84,14.06,14.06,0,0,1-2,8.65,27.68,27.68,0,0,1-5.75,7,17,17,0,0,1-4.62,2.34,24.4,24.4,0,0,1-6.15,1.28,36.35,36.35,0,0,1-6.76-.11,17.08,17.08,0,0,1-6.17-1.76,19.2,19.2,0,0,1-4.94-3.27Zm2.52-18.8a21,21,0,0,1,1.2,2.12c.24.83.59,2,1.07,3.36A6.35,6.35,0,0,0,704,111.7a10.85,10.85,0,0,0,1.78,1,8.05,8.05,0,0,0,1.92.59,5.2,5.2,0,0,0,1.36.14h1.73a6.85,6.85,0,0,1,2.1.4h-3.71a16,16,0,0,1-2.85-.29,4.83,4.83,0,0,1-2.34-1.15A16.93,16.93,0,0,1,701.2,107a18.48,18.48,0,0,0-2.22-4.74,6.93,6.93,0,0,0-1.4-1.51c-.54-.42-.63-.63-.3-.62a13.15,13.15,0,0,1,3,.91,17.64,17.64,0,0,0,3.64,1,2.85,2.85,0,0,0,1.17.51,14,14,0,0,0,1.79.4,6.85,6.85,0,0,0,2,.77H706.4a10,10,0,0,1-1.73-.15,7.76,7.76,0,0,0-1.36-.15h-.93a5.13,5.13,0,0,1-1.17-.14,9.3,9.3,0,0,0-1.36-.52c.24,0,.44.28.6.78Zm5-21.12a4.31,4.31,0,0,0,1.78,1.32,14,14,0,0,0,3.21,1.11l3.27.73a14.5,14.5,0,0,0,1.86.34,17.63,17.63,0,0,1,2.71,1l1.59.89c-1.07-.1-2.22-.16-3.46-.18h-2.85a4.53,4.53,0,0,1-1.86-.28,21.63,21.63,0,0,1-2.17-.09,15.72,15.72,0,0,1-2.9-.42,10.63,10.63,0,0,1-2.78-1,3.79,3.79,0,0,1-1.52-5.14,3.94,3.94,0,0,1,.94-1.13,6.47,6.47,0,0,1,4-1.92,19.28,19.28,0,0,1,2.23.1c.91.1,1.69.13,2.35.22a15.37,15.37,0,0,0,2.6.53l-5-.07A5.77,5.77,0,0,0,706,79.6a1.93,1.93,0,0,0-.61,2.66l.12.17Zm33,26a38.09,38.09,0,0,1-1.09,6.18,26.36,26.36,0,0,1-2.77,6.65,17.56,17.56,0,0,1-5.16,5.62,21.77,21.77,0,0,1-7.3,3.24,42.61,42.61,0,0,1-7.27,1.13,29.79,29.79,0,0,1-5.82-.15c-1.65-.23-2.52-.35-2.6-.35-.33-.25.35-.3,2-.15s3.32.23,4.89.26a19.23,19.23,0,0,0,6.09-1.21,45.08,45.08,0,0,0,7.11-3.06A33.17,33.17,0,0,0,732.7,122q2.84-2.69,4.43-9.73a17.2,17.2,0,0,0,0-6.63,25.57,25.57,0,0,0-1.71-5.67,28,28,0,0,0-3.14-5.37l-1.35-.89c-.9-.51-1.1-.84-.6-1s1,.08,1.78,1,1.6,1.9,2.49,3.07a24,24,0,0,1,2.42,3.88,12.82,12.82,0,0,1,1.32,3.49,15.56,15.56,0,0,1,.15,4.31ZM791,62.78h2.1a18.11,18.11,0,0,1,4.69,1.62,50.07,50.07,0,0,1,5.54,2.75A16,16,0,0,1,807,70.87c1.38,1.79,2,2.86,1.81,3.18a.82.82,0,0,0,.23,1,2.57,2.57,0,0,0,.36.62l.87.51c.65.26,1,.51,1,.76l-.62.61a1.19,1.19,0,0,1-.63.24,19.53,19.53,0,0,0,.58,2.49c.07.83.12,1.63.15,2.42s0,1.38,0,1.79a4.63,4.63,0,0,1-1.48,3.21,25.88,25.88,0,0,0-1.82,2c-.25.32-.75.3-1.24-.08a1.69,1.69,0,0,1-.72-1.44l.74-.11a4,4,0,0,1,1.07-.54,8.87,8.87,0,0,0,1.81-1,3.53,3.53,0,0,0,1.08-2,5.69,5.69,0,0,0,0-2.78q-.23-1.5-.69-3.36l-.48-1-.23-1.24a2.93,2.93,0,0,0-.35-1.12,14.42,14.42,0,0,1-.91-1.63c-.28-.58-.7-1.37-1.27-2.37a13.85,13.85,0,0,0-3.55-2.91,45.94,45.94,0,0,0-5.28-2.8c-2.14-.75-4.44-1.59-6.88-2.49a2.79,2.79,0,0,0,.5,0Zm-18.64,60.7a26,26,0,0,1-4-4.58,19.74,19.74,0,0,1-2.59-5.12,14.14,14.14,0,0,1-.8-4.41,4.1,4.1,0,0,1,.85-2.84,8.37,8.37,0,0,1,1.57-1.34,3.41,3.41,0,0,1,2.23,0,1.15,1.15,0,0,0-.12-.37,1,1,0,0,1-.23-1.12c0-.58.43-1,1.26-1.34a4.44,4.44,0,0,0,1.12-.36,3.12,3.12,0,0,1-.14.74,2.88,2.88,0,0,0-.52,1.61,2.49,2.49,0,0,0,.23,1.61,2.82,2.82,0,0,0,1,1,1,1,0,0,0,.86.57c.41,0,.78.49,1.1,1.32a1.32,1.32,0,0,1-.21,1.67,2.26,2.26,0,0,0-.71,1.66,2.93,2.93,0,0,0,.65,1.93c.45.54,1.24,1.53,2.37,3A22.58,22.58,0,0,1,778,119a5.31,5.31,0,0,0,1.84,1.52,10.52,10.52,0,0,0,3,.91,30.06,30.06,0,0,0,4.83.39q6.06.09,9.58-2.71t4.41-4.89c.77-1.39.89-3.27.34-5.64a10.06,10.06,0,0,0-2.77-5.31,11.07,11.07,0,0,0-3.45-1.6q-2.34-.7-5.25-1.32c-1.93-.4-3.83-.76-5.68-1.07s-3.4-.61-4.64-.88l-4-1.18a9.53,9.53,0,0,1-4-2.47,15.58,15.58,0,0,1-3.15-4.82,19.71,19.71,0,0,1-1.24-8.08,11.67,11.67,0,0,1,3-7.95,20.12,20.12,0,0,1,7-5,28.13,28.13,0,0,1,8.46-2.17,24.51,24.51,0,0,1,7,.11A12.24,12.24,0,0,1,798.45,69a34.36,34.36,0,0,1,4,3.53,27.38,27.38,0,0,1,3.1,3.77,10.37,10.37,0,0,1,1.51,2.87,6,6,0,0,1-.13,4.53,4.48,4.48,0,0,1-2.33,2.63,1.66,1.66,0,0,1-1,.35,3,3,0,0,1-2.22-.9,2.29,2.29,0,0,1-1.08-2,3.54,3.54,0,0,0-.34-2,15.72,15.72,0,0,0-2.25-3.13,11.74,11.74,0,0,0-3.37-2.78q-1.47-1.14-5.13-.94a38.46,38.46,0,0,0-5.77.65,9.91,9.91,0,0,0-2.86.89,25.51,25.51,0,0,0-3.38,1.81,19.18,19.18,0,0,0-2.88,2.19A3.46,3.46,0,0,0,773,83a5.73,5.73,0,0,0,2,4.49,12,12,0,0,0,2.82,2.15c.82.18,1.15.27,1,.26s.49.34,2,1a17.18,17.18,0,0,0,5.37,1.7,27.77,27.77,0,0,1,5,1.19,13.61,13.61,0,0,0,4.33.81,5.48,5.48,0,0,0,2.35,0,.33.33,0,0,1-.12-.25,4.17,4.17,0,0,1,.14-1.11c.33-.16.89,0,1.67.58a22.76,22.76,0,0,1,2.87,2.59c1,1.17,2.23,2.83,3.77,5a15.19,15.19,0,0,1,2.61,7.85,14,14,0,0,1-2.06,8.65,27.86,27.86,0,0,1-5.74,7,16.79,16.79,0,0,1-4.62,2.35,24,24,0,0,1-6.16,1.27,36.24,36.24,0,0,1-6.75-.1,16.9,16.9,0,0,1-6.17-1.77,18.7,18.7,0,0,1-4.94-3.2Zm2.51-18.8a18.56,18.56,0,0,1,1.21,2.13c.23.83.59,2,1.06,3.36a6.39,6.39,0,0,0,1.33,2.62,10,10,0,0,0,1.78,1,8,8,0,0,0,1.91.59,6.9,6.9,0,0,0,1.36.14h1.74a6.52,6.52,0,0,1,2.1.4l-3.72-.06a15.12,15.12,0,0,1-2.84-.29,4.66,4.66,0,0,1-2.34-1.15,16.78,16.78,0,0,1-2.83-5.37,18.85,18.85,0,0,0-2.23-4.74,6.93,6.93,0,0,0-1.4-1.51q-.79-.63-.3-.63a13.7,13.7,0,0,1,3,.92,17,17,0,0,0,3.63,1,3.16,3.16,0,0,0,1.17.52,15.61,15.61,0,0,0,1.8.4,7.6,7.6,0,0,0,2,.77h-2.48a10,10,0,0,1-1.73-.15,7.86,7.86,0,0,0-1.37-.14h-.92a4.28,4.28,0,0,1-1.18-.14,9.3,9.3,0,0,0-1.36-.52c.29,0,.49.34.65.84Zm5-21.12a4.11,4.11,0,0,0,1.78,1.33,13.46,13.46,0,0,0,3.2,1.1l3.28.73a11.79,11.79,0,0,0,1.85.34,18.74,18.74,0,0,1,2.71,1l1.6.9c-1.07-.1-2.23-.16-3.47-.18H788a4.66,4.66,0,0,1-1.85-.28,21.53,21.53,0,0,1-2.17-.09,17.9,17.9,0,0,1-2.91-.42,10.43,10.43,0,0,1-2.77-1,3.8,3.8,0,0,1-1.53-5.14,3.94,3.94,0,0,1,.94-1.13,6.47,6.47,0,0,1,4-1.92,21.41,21.41,0,0,1,2.23.09c.91.09,1.69.13,2.35.22a16.32,16.32,0,0,0,2.59.54l-5-.08a5.76,5.76,0,0,0-3.49,1.13,1.91,1.91,0,0,0-.58,2.64l.16.21Zm33,26a36.13,36.13,0,0,1-1.08,6.19A26.73,26.73,0,0,1,809,122.4a17.6,17.6,0,0,1-5.17,5.62,21.77,21.77,0,0,1-7.3,3.24,42.34,42.34,0,0,1-7.26,1.13,29.9,29.9,0,0,1-5.83-.15c-1.65-.23-2.51-.35-2.6-.35-.32-.26.36-.31,2-.16s3.32.24,4.89.26a19.24,19.24,0,0,0,6.1-1.21,47,47,0,0,0,7.11-3,34.57,34.57,0,0,0,6.08-4.62q2.82-2.69,4.42-9.72a16.82,16.82,0,0,0,0-6.63,25,25,0,0,0-1.71-5.67,28.65,28.65,0,0,0-3.14-5.38l-1.35-.88c-.91-.51-1.11-.85-.61-1s1,.08,1.79,1,1.6,1.91,2.49,3.08a25.84,25.84,0,0,1,2.42,3.87,13.13,13.13,0,0,1,1.31,3.49,15.2,15.2,0,0,1,.33,4.31Z" transform="translate(-10.17 -10.64)"/><path class="b" d="M432.77,197.61c.61.39,1.13.75,1.55,1,.87.66,1.67,1.26,2.43,1.81s1,1,.87,1.38c-.18.15-.62.15-1.29,0a14.24,14.24,0,0,1-2.31-.68,10.24,10.24,0,0,1-2.59-1.43,9.75,9.75,0,0,1-2.23-2.39,29.2,29.2,0,0,1-2.86-7.88,22.1,22.1,0,0,1-.24-9.71,14.3,14.3,0,0,1,1.49-4,14.92,14.92,0,0,1,4.9-5.27,24.71,24.71,0,0,0-3.07,4.39,16.54,16.54,0,0,0-1.87,5.08,15,15,0,0,0,.2,6.56,24.13,24.13,0,0,0,1.32,5.93,13.11,13.11,0,0,0,1.83,3.37A9.06,9.06,0,0,0,432.77,197.61Z" transform="translate(-10.17 -10.64)"/><path class="a" d="M431.43,199.74a10.24,10.24,0,0,0,2.59,1.43,14.24,14.24,0,0,0,2.31.68,2,2,0,0,0,1.29,0c.18-.34-.12-.8-.87-1.38s-1.56-1.15-2.43-1.81c-.42-.28-.94-.64-1.55-1a8.77,8.77,0,0,1-1.87-1.83,13.11,13.11,0,0,1-1.83-3.37,24.13,24.13,0,0,1-1.32-5.93,15,15,0,0,1-.2-6.56,16.54,16.54,0,0,1,1.87-5.08,24.71,24.71,0,0,1,3.07-4.39,14.92,14.92,0,0,0-4.9,5.27,14.3,14.3,0,0,0-1.49,4,22.1,22.1,0,0,0,.24,9.71,29.2,29.2,0,0,0,2.86,7.88A9.71,9.71,0,0,0,431.43,199.74Zm-6.6-24.32a18.93,18.93,0,0,1,4.34-5.71,14,14,0,0,1,4.83-2.83,8.32,8.32,0,0,1,3-.57,8.83,8.83,0,0,1,5.1,1.69,16.58,16.58,0,0,1,4,4.1,23.41,23.41,0,0,1,2.84,5.57,25.57,25.57,0,0,1,1.4,6.17,27.18,27.18,0,0,1-.22,6.56,23.73,23.73,0,0,1-1.83,6.39,17.61,17.61,0,0,1-3.23,4.86,6.75,6.75,0,0,1-4.18,2.21,16.12,16.12,0,0,1-5.31-.54,14.72,14.72,0,0,1-5.57-3,18.94,18.94,0,0,1-4.64-5.95,21.83,21.83,0,0,1-2.1-9.53C423.06,181,423.55,177.85,424.83,175.42Z" transform="translate(-10.17 -10.64)"/><path class="b" d="M418.56,178.84a29.37,29.37,0,0,1,2.31-8.67,10.57,10.57,0,0,1,4.38-5.37,24.68,24.68,0,0,1,6.08-2.75,28,28,0,0,1,5.2-1.09c1.41-.14,2.11-.3,2.09-.5-.64-1-.36-1.26.83-.74a20.9,20.9,0,0,1,4.36,2.83q5.52,4.35,9.43,13.77a28.76,28.76,0,0,1,1.27,5.73,33.14,33.14,0,0,1,.14,6.68,46,46,0,0,1-1,6.91,53.72,53.72,0,0,1-1.71,6.11,15.62,15.62,0,0,1-3.42,4.83,12.36,12.36,0,0,1-5.5,3.07,16.41,16.41,0,0,1-7.18.15,23.29,23.29,0,0,1-8.24-3.4,18.12,18.12,0,0,1-6.2-7.4,32.47,32.47,0,0,1-2.81-9.83A40.59,40.59,0,0,1,418.56,178.84Zm6.27-3.42c-1.28,2.43-1.77,5.57-1.53,9.41a21.83,21.83,0,0,0,2.1,9.53,18.94,18.94,0,0,0,4.64,5.95,14.72,14.72,0,0,0,5.57,3,16.12,16.12,0,0,0,5.31.54,6.75,6.75,0,0,0,4.18-2.21,17.61,17.61,0,0,0,3.23-4.86,24.1,24.1,0,0,0,1.83-6.39,27.18,27.18,0,0,0,.22-6.56,25.57,25.57,0,0,0-1.4-6.17,23.41,23.41,0,0,0-2.84-5.57,16.58,16.58,0,0,0-4-4.1,8.85,8.85,0,0,0-5.12-1.65,8.32,8.32,0,0,0-3,.57,14,14,0,0,0-4.83,2.83,19,19,0,0,0-4.36,5.68Z" transform="translate(-10.17 -10.64)"/><path class="b" d="M383.78,190.74q-.93-7.58-1.89-17.41c.12-.2.59-.36,1.41-.44l2.87-.27c1.09-.1,2.2-.16,3.34-.16s2-.06,2.69-.12a4.73,4.73,0,0,0,3.12-1.69,2.49,2.49,0,0,0,1.07-1.32,3.47,3.47,0,0,1-.67,1.18,21.15,21.15,0,0,1-1.63,1.65,8,8,0,0,1-2,.5c-1,.15-2,.35-3.19.59a26.34,26.34,0,0,1-3.2.52L384,174c-.6,0-.88.34-.82.87l.42,4.26c.24,2.63.54,5.67.87,9.12s.7,6.84,1.1,10.22.68,5.93.84,7.56a18.31,18.31,0,0,1,.35,3.69,4.89,4.89,0,0,1-.34,1.73c-.21.53-.51.83-.91.87a2.21,2.21,0,0,0,.32-.83,6.13,6.13,0,0,0,.12-1.91c0-.06-.08-.68-.18-1.87s-.28-2.67-.48-4.4-.46-3.7-.72-5.83S384,193.05,383.78,190.74Z" transform="translate(-10.17 -10.64)"/><path class="a" d="M462.26,191.94c.07.2.29.33.65.43l-.5-1.85a1.31,1.31,0,0,0-.33.64A2.61,2.61,0,0,0,462.26,191.94Zm-26.63-35.5,3.78.83a18.65,18.65,0,0,1,2.15.94c1.22.6,2.55,1.31,4,2.17a29.48,29.48,0,0,1,4.18,3,11.9,11.9,0,0,1,3,3.72,37.56,37.56,0,0,1,1.89,4.66c.6,1.77,1.16,3.64,1.66,5.59s.87,3.86,1.19,5.73a19.5,19.5,0,0,1,.28,5,47.65,47.65,0,0,1-1.14,8.41,21.42,21.42,0,0,1-4.43,8.22,26.39,26.39,0,0,1-3.9,3.72,32.07,32.07,0,0,1-3.7,2.51,24.05,24.05,0,0,1-3,1.51,40.08,40.08,0,0,0,5.29-2.53,28.1,28.1,0,0,0,5-3.74,15.67,15.67,0,0,0,3.92-5.41,24.67,24.67,0,0,0,1.89-6.84,62.36,62.36,0,0,0,.58-7.09,47.64,47.64,0,0,0-.24-6.09c-.22-1.77-.4-3.12-.56-4-.26-.63-.7-1.75-1.31-3.32a49.85,49.85,0,0,0-2.39-5.07,36.46,36.46,0,0,0-3.44-5.16,16,16,0,0,0-4.22-3.74c-1.61-.71-3-1.31-4.22-1.79a16.64,16.64,0,0,0-3.24-1A9.9,9.9,0,0,0,435.63,156.44Zm.9,4.52a28,28,0,0,0-5.2,1.09,24.68,24.68,0,0,0-6.08,2.75,10.57,10.57,0,0,0-4.38,5.37,29.37,29.37,0,0,0-2.31,8.67,40.59,40.59,0,0,0,0,10.33,32.47,32.47,0,0,0,2.81,9.83,18.12,18.12,0,0,0,6.2,7.4,23.29,23.29,0,0,0,8.24,3.4,16.41,16.41,0,0,0,7.18-.15,12.36,12.36,0,0,0,5.5-3.07,15.62,15.62,0,0,0,3.42-4.83,53.72,53.72,0,0,0,1.71-6.11,46,46,0,0,0,1-6.91,33.14,33.14,0,0,0-.14-6.68,28.76,28.76,0,0,0-1.27-5.73q-3.91-9.4-9.43-13.77a21.16,21.16,0,0,0-4.36-2.83c-1.19-.52-1.47-.28-.83.74.05.2-.65.36-2.06.54Zm-54.64,12.37q.94,9.82,1.89,17.41c.22,2.31.48,4.54.75,6.69s.5,4.08.72,5.83.36,3.2.48,4.4.16,1.81.18,1.87a6.13,6.13,0,0,1-.12,1.91,2.21,2.21,0,0,1-.32.83c.4,0,.7-.34.91-.87a4.89,4.89,0,0,0,.34-1.73,18.31,18.31,0,0,0-.35-3.69q-.24-2.44-.84-7.56c-.4-3.38-.76-6.8-1.1-10.22s-.63-6.49-.87-9.12l-.42-4.26c-.06-.53.22-.83.82-.87l1.77-.18a26.34,26.34,0,0,0,3.2-.52c1.16-.24,2.21-.44,3.19-.59a8,8,0,0,0,2-.5,21.15,21.15,0,0,0,1.63-1.65,3.47,3.47,0,0,0,.67-1.18,2.49,2.49,0,0,1-1.07,1.32,4.73,4.73,0,0,1-3.12,1.69c-.66.06-1.56.1-2.69.12s-2.25.06-3.34.16l-2.87.27C382.48,173,382,173.13,381.89,173.33Zm-12.78-1a3,3,0,0,0,1.06-1c.2-.36.89-.6,2.07-.69a1.18,1.18,0,0,1,1.17.63,8,8,0,0,1,.82,1.81,15.78,15.78,0,0,1,.57,2.35,16.31,16.31,0,0,0,.5,2.09,27,27,0,0,1,.56,4.66c.18,2.5.34,5.25.5,8.19s.28,5.91.41,8.9.18,5.19.18,6.58c0,3,.3,5,1.06,6.19s1.39,1.87,1.93,2a3,3,0,0,0,2-.63,5.22,5.22,0,0,0,1.61-1.42,1.2,1.2,0,0,0,.08-1.25,13.87,13.87,0,0,0-.76-1.77l-1-2.81-3.36-34.66.59-.06a4.49,4.49,0,0,0,.64-.1,2.34,2.34,0,0,1,.64-.12,3.06,3.06,0,0,1,1.43.26,3,3,0,0,0,1.61.16,5.25,5.25,0,0,0,1.37-.24,4.34,4.34,0,0,1,.84-.58c.66-.13,1.41-.31,2.25-.51a2.51,2.51,0,0,1,2.25.38c.63.39,1.09.51,1.37.35a9.79,9.79,0,0,1,2-.59,3.1,3.1,0,0,0,2.21-2.11q.45-1.53-1.08-4.9a2.62,2.62,0,0,0-1.67-1.77,3.92,3.92,0,0,0-2.25,0,6.12,6.12,0,0,0-2,.94,5.36,5.36,0,0,1-1.37.79,6.36,6.36,0,0,1-2.45.64l-2.56.24a10.66,10.66,0,0,0-1.46.44,8.43,8.43,0,0,1-1.49.25,13.93,13.93,0,0,0-1.67.16l-3.68.3c-1.77.14-3.66.26-5.65.36L363,166c-1.64.06-2.61.1-2.93.14-.74.06-1.17.3-1.35.68a3.33,3.33,0,0,0,1.51,4.19,15.18,15.18,0,0,0,2.15,1.6,2.12,2.12,0,0,0,1.33.21c.66,0,1.37-.06,2.13-.1s1.47-.09,2.15-.15a3.87,3.87,0,0,0,1.12-.19Zm95.12-51.9L476,241.5l-59.81,5.79-2.78.26-59.92,5.81-11.72-121,59.92-5.79,2.78-.28Z" transform="translate(-10.17 -10.64)"/><path class="b" d="M373.41,171.32a1.18,1.18,0,0,0-1.17-.63c-1.18.09-1.87.33-2.07.69a3,3,0,0,1-1.06,1,3.62,3.62,0,0,1-1.17.22c-.68.06-1.37.11-2.15.15s-1.47.08-2.13.1a2.12,2.12,0,0,1-1.33-.21,15.18,15.18,0,0,1-2.15-1.6,3.33,3.33,0,0,1-1.51-4.19c.18-.38.61-.62,1.35-.68.32,0,1.29-.08,2.93-.14l5.43-.22q3-.15,5.65-.36l3.68-.3c.52-.06,1.07-.12,1.67-.16a8.43,8.43,0,0,0,1.49-.25,10.66,10.66,0,0,1,1.46-.44l2.56-.24a6.36,6.36,0,0,0,2.45-.64,5.36,5.36,0,0,0,1.37-.79,6.12,6.12,0,0,1,2-.94,3.92,3.92,0,0,1,2.25,0,2.62,2.62,0,0,1,1.67,1.77c1,2.25,1.38,3.89,1.08,4.9a3.1,3.1,0,0,1-2.21,2.11,9.79,9.79,0,0,0-2,.59c-.28.16-.74,0-1.37-.35a2.51,2.51,0,0,0-2.25-.38c-.84.2-1.59.38-2.25.51a4.34,4.34,0,0,0-.84.58,5.25,5.25,0,0,1-1.37.24,3,3,0,0,1-1.61-.16,3.06,3.06,0,0,0-1.43-.26,2.34,2.34,0,0,0-.64.12,4.49,4.49,0,0,1-.64.1l-.59.06,3.36,34.66,1,2.81a13.87,13.87,0,0,1,.76,1.77,1.2,1.2,0,0,1-.08,1.25,5.22,5.22,0,0,1-1.61,1.42,3,3,0,0,1-2,.63c-.54-.14-1.2-.81-1.93-2s-1.1-3.24-1.06-6.19c0-1.39-.06-3.6-.18-6.58s-.27-6-.41-8.9-.32-5.69-.5-8.19a27,27,0,0,0-.56-4.66,16.31,16.31,0,0,1-.5-2.09,15.78,15.78,0,0,0-.57-2.35A7.77,7.77,0,0,0,373.41,171.32Z" transform="translate(-10.17 -10.64)"/></svg>