<svg xmlns="http://www.w3.org/2000/svg" viewBox="0 0 500 500"><defs><style>.cls-1{fill:#231f20;}</style></defs><title>IconSet1</title><g id="Layer_3" data-name="Layer 3"><polygon class="cls-1" points="9.81 9.8 116.32 9.8 116.32 0 0.01 0 0.01 116.31 9.81 116.31 9.81 9.8"/><polygon class="cls-1" points="383.68 0 383.68 9.8 490.18 9.8 490.18 116.31 499.99 116.31 499.99 0 383.68 0"/><polygon class="cls-1" points="490.18 489.03 383.68 489.03 383.68 498.84 499.99 498.84 499.99 382.53 490.18 382.53 490.18 489.03"/><polygon class="cls-1" points="9.81 382.53 0.01 382.53 0.01 498.84 116.32 498.84 116.32 489.03 9.81 489.03 9.81 382.53"/><polygon class="cls-1" points="450.52 254.89 450.52 245.09 254.9 245.09 254.9 49.46 245.1 49.46 245.1 245.09 49.48 245.09 49.48 254.89 245.1 254.89 245.1 450.51 254.9 450.51 254.9 254.89 450.52 254.89"/><path class="cls-1" d="M430.47,73.33H294.38V209.42H430.47Zm-9.8,126.29H304.19V83.13H420.67Z"/><path class="cls-1" d="M70.55,209.42H206.64V73.33H70.55ZM80.36,83.13H196.84V199.62H80.36Z"/><path class="cls-1" d="M70.55,426.65H206.64V290.56H70.55Zm9.81-126.29H196.84V416.84H80.36Z"/><rect class="cls-1" x="315.95" y="310.17" width="112.29" height="9.8"/><rect class="cls-1" x="314.61" y="357.47" width="9.8" height="70.76"/><path class="cls-1" d="M429.22,356.49H374.86v54.36h54.36Zm-9.8,44.56H384.66V366.29h34.76Z"/></g></svg>