<svg xmlns="http://www.w3.org/2000/svg" viewBox="0 0 500 500"><defs><style>.cls-1{fill:#231f20;}</style></defs><title>IconSet1</title><g id="Layer_2" data-name="Layer 2"><path class="cls-1" d="M292.32,414.3C178.39,414.3,85.7,321.61,85.7,207.68S178.39,1.06,292.32,1.06,498.94,93.75,498.94,207.68,406.25,414.3,292.32,414.3Zm0-403.24C183.9,11.06,95.7,99.27,95.7,207.68S183.9,404.3,292.32,404.3s196.62-88.2,196.62-196.62S400.73,11.06,292.32,11.06Z"/><rect class="cls-1" x="-26.56" y="418.66" width="206.89" height="10" transform="translate(-277.04 178.43) rotate(-45)"/><path class="cls-1" d="M294.92,294.4a130.74,130.74,0,0,1-122.45-85l-.66-1.75.66-1.75a130.73,130.73,0,0,1,244.91,0l.65,1.75-.65,1.75a130.74,130.74,0,0,1-122.46,85ZM182.5,207.68a120.72,120.72,0,0,0,224.84,0,120.73,120.73,0,0,0-224.84,0Z"/><circle class="cls-1" cx="295.9" cy="208.01" r="37.11"/></g></svg>