<svg xmlns="http://www.w3.org/2000/svg" viewBox="0 0 500 500"><defs><style>.cls-1{fill:#010101;}</style></defs><title>IconSet1</title><g id="Layer_2" data-name="Layer 2"><path class="cls-1" d="M281.77,497.63v-182h57.3l9-58.42H281.77V205.94c0-27.35,16.94-43.68,45.32-43.68h24.74V113.43c-9-1.31-29.18-3.9-48.43-3.9-26,0-47.6,7.84-62.42,22.66-15.24,15.27-23.3,38-23.3,65.81v59.22H156.14v58.42h61.54v182L211,496.58a248.13,248.13,0,1,1,77.54,0Zm-32-482.78A236.57,236.57,0,0,0,206,483.92V327.28H144.49v-81.7H206V198c0-30.94,9.24-56.55,26.71-74,17-17.06,41.48-26.08,70.66-26.08,26.7,0,54.08,4.62,55.23,4.82l4.85.83v70.38H327.09c-15.36,0-33.67,5.56-33.67,32v39.64H361.6l-12.54,81.7H293.42V483.92a236.57,236.57,0,0,0-43.7-469.07Z"/></g></svg>