<svg xmlns="http://www.w3.org/2000/svg" viewBox="0 0 500 500"><defs><style>.cls-1{fill:#231f20;}</style></defs><title>IconSet1</title><g id="Layer_2" data-name="Layer 2"><path class="cls-1" d="M385,125A52.11,52.11,0,1,1,437.1,72.93,52.16,52.16,0,0,1,385,125Zm0-94.22A42.11,42.11,0,1,0,427.1,72.93,42.16,42.16,0,0,0,385,30.82Z"/><path class="cls-1" d="M315,487.76a37.61,37.61,0,0,1-37.57-37.57V340L226.2,288.78,163.68,351.3H42.36a30.29,30.29,0,1,1,0-60.57h79.06L259.26,152.89H233.35l-61.94,61.94a25.63,25.63,0,0,1-36.25-36.24l79.18-79.18H320.53L386,164.84l42-42.58a27,27,0,0,1,19.26-8.1h.1a27.19,27.19,0,0,1,19.22,46.42L385.82,241.3l-56.07-56.07L274,240.94l78.53,78.53V450.19A37.61,37.61,0,0,1,315,487.76ZM226.2,274.64l61.23,61.23V450.19a27.57,27.57,0,1,0,55.13,0V323.61l-82.67-82.67,69.86-69.85,56.07,56.07,73.65-73.65a17.19,17.19,0,0,0-12.16-29.35h-.06a17.08,17.08,0,0,0-12.18,5.12L386,179l-69.61-69.62H218.48l-76.25,76.25a15.63,15.63,0,0,0,22.11,22.1l64.87-64.87h54.2L125.57,300.73H42.36a20.29,20.29,0,1,0,0,40.57H159.54Z"/></g></svg>